<svg width="10" height="10" viewBox="0 0 10 10" fill="none" xmlns="http://www.w3.org/2000/svg">
<path d="M9.33342 5.00008C9.33342 5.78625 9.13969 6.51129 8.75225 7.17521C8.36481 7.83913 7.83913 8.36481 7.17521 8.75225C6.51129 9.13969 5.78625 9.33342 5.00008 9.33342C4.21391 9.33342 3.48887 9.13969 2.82495 8.75225C2.16103 8.36481 1.63535 7.83913 1.24791 7.17521C0.860469 6.51129 0.666748 5.78625 0.666748 5.00008C0.666748 4.21391 0.860469 3.48887 1.24791 2.82495C1.63535 2.16103 2.16103 1.63535 2.82495 1.24791C3.48887 0.860469 4.21391 0.666748 5.00008 0.666748C5.78625 0.666748 6.51129 0.860469 7.17521 1.24791C7.83913 1.63535 8.36481 2.16103 8.75225 2.82495C9.13969 3.48887 9.33342 4.21391 9.33342 5.00008Z" fill="#FF9777"/>
</svg>
