<svg width="51" height="43" viewBox="0 0 51 43" fill="none" xmlns="http://www.w3.org/2000/svg">
<path d="M34.8316 3.2122V16.788C34.8641 17.44 34.4888 18.0738 33.7879 18.5507C33.0869 19.0277 32.1172 19.3091 31.0906 19.3334H24.143C23.0799 19.3334 22.0604 19.0652 21.3087 18.5879C20.5571 18.1105 20.1348 17.4631 20.1348 16.788V10.8486H26.8151C27.1695 10.8486 27.5093 10.7592 27.7599 10.6001C28.0104 10.4409 28.1512 10.2251 28.1512 10.0001C28.1512 9.77505 28.0104 9.55923 27.7599 9.40011C27.5093 9.24099 27.1695 9.1516 26.8151 9.1516H20.1348V3.2122C20.1348 2.53711 20.5571 1.88966 21.3087 1.41229C22.0604 0.934929 23.0799 0.666748 24.143 0.666748H31.0906C32.1172 0.691083 33.0869 0.972464 33.7879 1.44941C34.4888 1.92637 34.8641 2.56012 34.8316 3.2122Z" fill="#E3E6EB"/>
<path d="M28.4263 10.0003C28.4263 10.2295 28.327 10.4493 28.1503 10.6114C27.9736 10.7735 27.7339 10.8645 27.484 10.8645H19.3903L20.7283 12.083C20.8166 12.1634 20.8867 12.2589 20.9345 12.3643C20.9823 12.4696 21.007 12.5825 21.007 12.6966C21.007 12.8107 20.9823 12.9236 20.9345 13.029C20.8867 13.1343 20.8166 13.2298 20.7283 13.3102C20.6402 13.3903 20.5358 13.4536 20.421 13.4967C20.3062 13.5397 20.1833 13.5615 20.0593 13.5608C19.9353 13.5615 19.8123 13.5397 19.6975 13.4967C19.5827 13.4536 19.4783 13.3903 19.3903 13.3102L16.4505 10.6139C16.3658 10.5343 16.2986 10.4404 16.2527 10.3373C16.1762 10.1956 16.1499 10.0355 16.1773 9.87932V9.78426C16.1689 9.7443 16.1689 9.70323 16.1773 9.66327C16.2232 9.56027 16.2904 9.46637 16.3752 9.38673L19.3903 6.69043C19.5677 6.5277 19.8084 6.43628 20.0593 6.43628C20.3102 6.43628 20.5508 6.5277 20.7283 6.69043C20.9057 6.85316 21.0054 7.07388 21.0054 7.30401C21.0054 7.53415 20.9057 7.75486 20.7283 7.91759L19.3903 9.13611H27.484C27.7339 9.13611 27.9736 9.22716 28.1503 9.38923C28.327 9.5513 28.4263 9.77111 28.4263 10.0003Z" fill="#82868C"/>
<path d="M1.69636 31.6H3.25636V38.68H7.64836V40H1.69636V31.6ZM11.5574 40.084C10.9094 40.084 10.3254 39.944 9.80536 39.664C9.28536 39.384 8.87736 38.996 8.58136 38.5C8.29336 37.996 8.14936 37.428 8.14936 36.796C8.14936 36.164 8.29336 35.6 8.58136 35.104C8.87736 34.608 9.28536 34.22 9.80536 33.94C10.3254 33.66 10.9094 33.52 11.5574 33.52C12.2134 33.52 12.8014 33.66 13.3214 33.94C13.8414 34.22 14.2454 34.608 14.5334 35.104C14.8294 35.6 14.9774 36.164 14.9774 36.796C14.9774 37.428 14.8294 37.996 14.5334 38.5C14.2454 38.996 13.8414 39.384 13.3214 39.664C12.8014 39.944 12.2134 40.084 11.5574 40.084ZM11.5574 38.8C12.1094 38.8 12.5654 38.616 12.9254 38.248C13.2854 37.88 13.4654 37.396 13.4654 36.796C13.4654 36.196 13.2854 35.712 12.9254 35.344C12.5654 34.976 12.1094 34.792 11.5574 34.792C11.0054 34.792 10.5494 34.976 10.1894 35.344C9.83736 35.712 9.66136 36.196 9.66136 36.796C9.66136 37.396 9.83736 37.88 10.1894 38.248C10.5494 38.616 11.0054 38.8 11.5574 38.8ZM22.7717 33.592V39.028C22.7717 41.284 21.6197 42.412 19.3157 42.412C18.6997 42.412 18.1157 42.332 17.5637 42.172C17.0117 42.02 16.5557 41.796 16.1957 41.5L16.8677 40.372C17.1477 40.604 17.4997 40.788 17.9237 40.924C18.3557 41.068 18.7917 41.14 19.2317 41.14C19.9357 41.14 20.4517 40.98 20.7797 40.66C21.1077 40.34 21.2717 39.852 21.2717 39.196V38.86C21.0157 39.14 20.7037 39.352 20.3357 39.496C19.9677 39.64 19.5637 39.712 19.1237 39.712C18.5157 39.712 17.9637 39.584 17.4677 39.328C16.9797 39.064 16.5917 38.696 16.3037 38.224C16.0237 37.752 15.8837 37.212 15.8837 36.604C15.8837 35.996 16.0237 35.46 16.3037 34.996C16.5917 34.524 16.9797 34.16 17.4677 33.904C17.9637 33.648 18.5157 33.52 19.1237 33.52C19.5877 33.52 20.0077 33.596 20.3837 33.748C20.7677 33.9 21.0877 34.132 21.3437 34.444V33.592H22.7717ZM19.3517 38.44C19.9197 38.44 20.3837 38.272 20.7437 37.936C21.1117 37.592 21.2957 37.148 21.2957 36.604C21.2957 36.068 21.1117 35.632 20.7437 35.296C20.3837 34.96 19.9197 34.792 19.3517 34.792C18.7757 34.792 18.3037 34.96 17.9357 35.296C17.5757 35.632 17.3957 36.068 17.3957 36.604C17.3957 37.148 17.5757 37.592 17.9357 37.936C18.3037 38.272 18.7757 38.44 19.3517 38.44ZM32.1282 40.12C31.2722 40.12 30.5002 39.936 29.8122 39.568C29.1242 39.192 28.5842 38.676 28.1922 38.02C27.8002 37.356 27.6042 36.616 27.6042 35.8C27.6042 34.984 27.8002 34.248 28.1922 33.592C28.5842 32.928 29.1242 32.412 29.8122 32.044C30.5002 31.668 31.2722 31.48 32.1282 31.48C32.9842 31.48 33.7562 31.668 34.4442 32.044C35.1322 32.412 35.6722 32.924 36.0642 33.58C36.4562 34.236 36.6522 34.976 36.6522 35.8C36.6522 36.624 36.4562 37.364 36.0642 38.02C35.6722 38.676 35.1322 39.192 34.4442 39.568C33.7562 39.936 32.9842 40.12 32.1282 40.12ZM32.1282 38.752C32.6882 38.752 33.1922 38.628 33.6402 38.38C34.0882 38.124 34.4402 37.772 34.6962 37.324C34.9522 36.868 35.0802 36.36 35.0802 35.8C35.0802 35.24 34.9522 34.736 34.6962 34.288C34.4402 33.832 34.0882 33.48 33.6402 33.232C33.1922 32.976 32.6882 32.848 32.1282 32.848C31.5682 32.848 31.0642 32.976 30.6162 33.232C30.1682 33.48 29.8162 33.832 29.5602 34.288C29.3042 34.736 29.1762 35.24 29.1762 35.8C29.1762 36.36 29.3042 36.868 29.5602 37.324C29.8162 37.772 30.1682 38.124 30.6162 38.38C31.0642 38.628 31.5682 38.752 32.1282 38.752ZM44.3657 33.592V40H42.9377V39.184C42.6977 39.472 42.3977 39.696 42.0377 39.856C41.6777 40.008 41.2897 40.084 40.8737 40.084C40.0177 40.084 39.3417 39.848 38.8457 39.376C38.3577 38.896 38.1137 38.188 38.1137 37.252V33.592H39.6137V37.048C39.6137 37.624 39.7417 38.056 39.9977 38.344C40.2617 38.624 40.6337 38.764 41.1137 38.764C41.6497 38.764 42.0737 38.6 42.3857 38.272C42.7057 37.936 42.8657 37.456 42.8657 36.832V33.592H44.3657ZM50.1817 39.652C50.0057 39.796 49.7897 39.904 49.5337 39.976C49.2857 40.048 49.0217 40.084 48.7417 40.084C48.0377 40.084 47.4937 39.9 47.1097 39.532C46.7257 39.164 46.5337 38.628 46.5337 37.924V34.84H45.4777V33.64H46.5337V32.176H48.0337V33.64H49.7497V34.84H48.0337V37.888C48.0337 38.2 48.1097 38.44 48.2617 38.608C48.4137 38.768 48.6337 38.848 48.9217 38.848C49.2577 38.848 49.5377 38.76 49.7617 38.584L50.1817 39.652Z" fill="#1D212E"/>
</svg>
