<svg width="30" height="31" viewBox="0 0 30 31" fill="none" xmlns="http://www.w3.org/2000/svg">
<path d="M2.93457 29.9667H7.4677V16.8152H7.27277L2.93457 21.8496V29.9667Z" fill="#61A9FF"/>
<path d="M9.73413 29.9668H14.2673V19.2193L9.73413 13.9587V29.9668Z" fill="#61A9FF"/>
<path d="M16.5339 29.9669H21.0671V14.1851H20.8721L16.5339 19.2195V29.9669Z" fill="#61A9FF"/>
<path d="M23.3336 11.3284V29.9667H27.8667V9.4688L26.4014 7.76831L23.3336 11.3284Z" fill="#61A9FF"/>
<path d="M24.7989 4.04909L15.4006 14.9556L14.2673 13.6405L13.6032 12.8698L9.7342 8.37988L1 18.5158L2.60246 20.3754L2.93451 19.99L5.67025 16.8153L9.7342 12.0991L10.3983 12.8698L14.2673 17.3597L15.4006 18.6749L16.5339 17.3597L19.2696 14.185L23.3336 9.46883L26.0693 6.29405L26.4014 5.90871L26.7334 6.29405L27.8667 7.6092L29 8.92435V1.03345H22.2003L24.7989 4.04909Z" fill="#407BFF"/>
</svg>
