<svg width="83" height="75" viewBox="0 0 83 75" fill="none" xmlns="http://www.w3.org/2000/svg">
<rect x="0.5" y="0.5" width="82" height="74" rx="7.5" fill="#F7F7F8"/>
<path d="M41.5002 26.0001C44.0775 26.0001 46.1668 23.9107 46.1668 21.3334C46.1668 18.7561 44.0775 16.6667 41.5002 16.6667C38.9228 16.6667 36.8335 18.7561 36.8335 21.3334C36.8335 23.9107 38.9228 26.0001 41.5002 26.0001Z" fill="#A9B8FA"/>
<path d="M32.1667 32.5334V33.4667C32.1667 34.4977 33.0953 35.3334 34.2408 35.3334H48.7593C49.9049 35.3334 50.8334 34.4977 50.8334 33.4667V32.5334C50.8334 29.9561 48.5119 27.8667 45.6482 27.8667H37.3519C34.4882 27.8667 32.1667 29.9561 32.1667 32.5334Z" fill="#2940D3"/>
<path d="M21.3225 56L21.3105 50.432L18.5505 55.04H17.8545L15.0945 50.504V56H13.6065V47.6H14.8905L18.2265 53.168L21.5025 47.6H22.7865L22.7985 56H21.3225ZM30.9235 49.592L27.9235 56.516C27.6435 57.212 27.3035 57.7 26.9035 57.98C26.5035 58.268 26.0195 58.412 25.4515 58.412C25.1315 58.412 24.8155 58.36 24.5035 58.256C24.1915 58.152 23.9355 58.008 23.7355 57.824L24.3355 56.72C24.4795 56.856 24.6475 56.964 24.8395 57.044C25.0395 57.124 25.2395 57.164 25.4395 57.164C25.7035 57.164 25.9195 57.096 26.0875 56.96C26.2635 56.824 26.4235 56.596 26.5675 56.276L26.6755 56.024L23.8795 49.592H25.4395L27.4555 54.332L29.4835 49.592H30.9235ZM38.7294 49.52C39.3534 49.52 39.9094 49.656 40.3974 49.928C40.8934 50.2 41.2814 50.584 41.5614 51.08C41.8414 51.576 41.9814 52.148 41.9814 52.796C41.9814 53.444 41.8414 54.02 41.5614 54.524C41.2814 55.02 40.8934 55.404 40.3974 55.676C39.9094 55.948 39.3534 56.084 38.7294 56.084C38.2894 56.084 37.8854 56.008 37.5174 55.856C37.1574 55.704 36.8534 55.476 36.6054 55.172V56H35.1774V47.096H36.6774V50.372C36.9334 50.092 37.2334 49.88 37.5774 49.736C37.9294 49.592 38.3134 49.52 38.7294 49.52ZM38.5614 54.8C39.1134 54.8 39.5654 54.616 39.9174 54.248C40.2774 53.88 40.4574 53.396 40.4574 52.796C40.4574 52.196 40.2774 51.712 39.9174 51.344C39.5654 50.976 39.1134 50.792 38.5614 50.792C38.2014 50.792 37.8774 50.876 37.5894 51.044C37.3014 51.204 37.0734 51.436 36.9054 51.74C36.7374 52.044 36.6534 52.396 36.6534 52.796C36.6534 53.196 36.7374 53.548 36.9054 53.852C37.0734 54.156 37.3014 54.392 37.5894 54.56C37.8774 54.72 38.2014 54.8 38.5614 54.8ZM46.2839 56.084C45.6359 56.084 45.0519 55.944 44.5319 55.664C44.0119 55.384 43.6039 54.996 43.3079 54.5C43.0199 53.996 42.8759 53.428 42.8759 52.796C42.8759 52.164 43.0199 51.6 43.3079 51.104C43.6039 50.608 44.0119 50.22 44.5319 49.94C45.0519 49.66 45.6359 49.52 46.2839 49.52C46.9399 49.52 47.5279 49.66 48.0479 49.94C48.5679 50.22 48.9719 50.608 49.2599 51.104C49.5559 51.6 49.7039 52.164 49.7039 52.796C49.7039 53.428 49.5559 53.996 49.2599 54.5C48.9719 54.996 48.5679 55.384 48.0479 55.664C47.5279 55.944 46.9399 56.084 46.2839 56.084ZM46.2839 54.8C46.8359 54.8 47.2919 54.616 47.6519 54.248C48.0119 53.88 48.1919 53.396 48.1919 52.796C48.1919 52.196 48.0119 51.712 47.6519 51.344C47.2919 50.976 46.8359 50.792 46.2839 50.792C45.7319 50.792 45.2759 50.976 44.9159 51.344C44.5639 51.712 44.3879 52.196 44.3879 52.796C44.3879 53.396 44.5639 53.88 44.9159 54.248C45.2759 54.616 45.7319 54.8 46.2839 54.8ZM53.5043 49.52C54.4483 49.52 55.1683 49.748 55.6643 50.204C56.1683 50.652 56.4203 51.332 56.4203 52.244V56H55.0043V55.22C54.8203 55.5 54.5563 55.716 54.2123 55.868C53.8763 56.012 53.4683 56.084 52.9883 56.084C52.5083 56.084 52.0883 56.004 51.7283 55.844C51.3683 55.676 51.0883 55.448 50.8883 55.16C50.6963 54.864 50.6003 54.532 50.6003 54.164C50.6003 53.588 50.8123 53.128 51.2363 52.784C51.6683 52.432 52.3443 52.256 53.2643 52.256H54.9203V52.16C54.9203 51.712 54.7843 51.368 54.5123 51.128C54.2483 50.888 53.8523 50.768 53.3243 50.768C52.9643 50.768 52.6083 50.824 52.2563 50.936C51.9123 51.048 51.6203 51.204 51.3803 51.404L50.7923 50.312C51.1283 50.056 51.5323 49.86 52.0043 49.724C52.4763 49.588 52.9763 49.52 53.5043 49.52ZM53.3003 54.992C53.6763 54.992 54.0083 54.908 54.2963 54.74C54.5923 54.564 54.8003 54.316 54.9203 53.996V53.252H53.3723C52.5083 53.252 52.0763 53.536 52.0763 54.104C52.0763 54.376 52.1843 54.592 52.4003 54.752C52.6163 54.912 52.9163 54.992 53.3003 54.992ZM59.7733 50.528C60.2053 49.856 60.9653 49.52 62.0533 49.52V50.948C61.9253 50.924 61.8093 50.912 61.7053 50.912C61.1213 50.912 60.6653 51.084 60.3373 51.428C60.0093 51.764 59.8453 52.252 59.8453 52.892V56H58.3453V49.592H59.7733V50.528ZM69.5432 47.096V56H68.1032V55.172C67.8552 55.476 67.5472 55.704 67.1792 55.856C66.8192 56.008 66.4192 56.084 65.9792 56.084C65.3632 56.084 64.8072 55.948 64.3112 55.676C63.8232 55.404 63.4392 55.02 63.1592 54.524C62.8792 54.02 62.7392 53.444 62.7392 52.796C62.7392 52.148 62.8792 51.576 63.1592 51.08C63.4392 50.584 63.8232 50.2 64.3112 49.928C64.8072 49.656 65.3632 49.52 65.9792 49.52C66.4032 49.52 66.7912 49.592 67.1432 49.736C67.4952 49.88 67.7952 50.096 68.0432 50.384V47.096H69.5432ZM66.1592 54.8C66.5192 54.8 66.8432 54.72 67.1312 54.56C67.4192 54.392 67.6472 54.156 67.8152 53.852C67.9832 53.548 68.0672 53.196 68.0672 52.796C68.0672 52.396 67.9832 52.044 67.8152 51.74C67.6472 51.436 67.4192 51.204 67.1312 51.044C66.8432 50.876 66.5192 50.792 66.1592 50.792C65.7992 50.792 65.4752 50.876 65.1872 51.044C64.8992 51.204 64.6712 51.436 64.5032 51.74C64.3352 52.044 64.2512 52.396 64.2512 52.796C64.2512 53.196 64.3352 53.548 64.5032 53.852C64.6712 54.156 64.8992 54.392 65.1872 54.56C65.4752 54.72 65.7992 54.8 66.1592 54.8Z" fill="#1D212E"/>
<rect x="0.5" y="0.5" width="82" height="74" rx="7.5" stroke="#E3E6EB"/>
</svg>
