<svg width="31" height="31" viewBox="0 0 31 31" fill="none" xmlns="http://www.w3.org/2000/svg">
<path d="M21.1666 14.1901L14.5541 21.023C14.2014 21.3875 13.6247 21.3875 13.272 21.023L12.8632 20.6006L9.83977 17.488C9.55422 17.1929 9.39185 16.7995 9.39185 16.3771C9.39185 15.9548 9.54862 15.5613 9.83417 15.2663L9.85097 15.2489C10.4501 14.6298 11.4299 14.6298 12.029 15.2489L13.9103 17.1929L15.7971 15.2373C15.8195 15.2142 15.8475 15.191 15.8699 15.1679L17.7904 13.1776C17.8072 13.1603 17.824 13.1429 17.8464 13.1256L18.9998 11.9279C19.2853 11.6329 19.6661 11.4651 20.0748 11.4651C20.4835 11.4651 20.8642 11.6271 21.1498 11.9222L21.1666 11.9395C21.4577 12.2404 21.6201 12.6396 21.6201 13.0619C21.6145 13.4901 21.4577 13.8893 21.1666 14.1901Z" fill="#407BFF"/>
<path d="M29.3691 15.0116L27.7454 12.1072V8.75151C27.7454 8.40437 27.5662 8.08038 27.2751 7.90681L24.4644 6.22897L22.8407 3.32457C22.6727 3.02371 22.3591 2.83857 22.0232 2.83857H18.7758L15.9651 1.16073C15.8251 1.07973 15.6627 1.03345 15.5003 1.03345C15.338 1.03345 15.1756 1.07973 15.03 1.16652L12.2193 2.84436H8.97189C8.63595 2.84436 8.3224 3.0295 8.15443 3.33035L6.53072 6.23475L3.72001 7.91259C3.42886 8.08616 3.24969 8.41016 3.24969 8.7573V12.113L1.62598 15.0174C1.45801 15.3182 1.45801 15.6885 1.62598 15.9894L3.24969 18.8938V22.2494C3.24969 22.5966 3.42886 22.9206 3.72001 23.0942L6.53072 24.772L8.15443 27.6764C8.3224 27.9772 8.63595 28.1624 8.97189 28.1624H12.2193L15.03 29.8402C15.1756 29.927 15.338 29.9675 15.5003 29.9675C15.6627 29.9675 15.8251 29.927 15.9707 29.8402L18.7814 28.1624H22.0288C22.3647 28.1624 22.6783 27.9772 22.8463 27.6764L24.47 24.772L27.2807 23.0942C27.5718 22.9206 27.751 22.5966 27.751 22.2494V18.8938L29.3747 15.9894C29.5427 15.6827 29.5427 15.3124 29.3691 15.0116ZM15.5003 24.7604C10.5508 24.7604 6.53632 20.6121 6.53632 15.4976C6.53632 10.3831 10.5508 6.23475 15.5003 6.23475C20.4499 6.23475 24.4644 10.3831 24.4644 15.4976C24.4644 20.6121 20.4499 24.7604 15.5003 24.7604Z" fill="#61A9FF"/>
</svg>
