<svg width="387" height="97" viewBox="0 0 387 97" fill="none" xmlns="http://www.w3.org/2000/svg">
<path d="M10.128 57.1438C8.816 57.1438 7.608 56.9278 6.504 56.4958C5.4 56.0638 4.44 55.4638 3.624 54.6958C2.808 53.9118 2.176 52.9998 1.728 51.9598C1.28 50.9038 1.056 49.7518 1.056 48.5038C1.056 47.2558 1.28 46.1118 1.728 45.0718C2.176 44.0158 2.808 43.1038 3.624 42.3358C4.44 41.5518 5.4 40.9438 6.504 40.5118C7.608 40.0798 8.808 39.8638 10.104 39.8638C11.416 39.8638 12.616 40.0798 13.704 40.5118C14.808 40.9438 15.768 41.5518 16.584 42.3358C17.4 43.1038 18.032 44.0158 18.48 45.0718C18.928 46.1118 19.152 47.2558 19.152 48.5038C19.152 49.7518 18.928 50.9038 18.48 51.9598C18.032 53.0158 17.4 53.9278 16.584 54.6958C15.768 55.4638 14.808 56.0638 13.704 56.4958C12.616 56.9278 11.424 57.1438 10.128 57.1438ZM10.104 54.4078C10.952 54.4078 11.736 54.2638 12.456 53.9758C13.176 53.6878 13.8 53.2798 14.328 52.7518C14.856 52.2078 15.264 51.5838 15.552 50.8798C15.856 50.1598 16.008 49.3678 16.008 48.5038C16.008 47.6398 15.856 46.8558 15.552 46.1518C15.264 45.4318 14.856 44.8078 14.328 44.2798C13.8 43.7358 13.176 43.3198 12.456 43.0318C11.736 42.7438 10.952 42.5998 10.104 42.5998C9.256 42.5998 8.472 42.7438 7.752 43.0318C7.048 43.3198 6.424 43.7358 5.88 44.2798C5.352 44.8078 4.936 45.4318 4.632 46.1518C4.344 46.8558 4.2 47.6398 4.2 48.5038C4.2 49.3518 4.344 50.1358 4.632 50.8558C4.936 51.5758 5.352 52.2078 5.88 52.7518C6.408 53.2798 7.032 53.6878 7.752 53.9758C8.472 54.2638 9.256 54.4078 10.104 54.4078ZM27.5951 57.0718C26.5071 57.0718 25.5471 56.8718 24.7151 56.4718C23.8831 56.0558 23.2351 55.4318 22.7711 54.5998C22.3071 53.7518 22.0751 52.6878 22.0751 51.4078V44.0878H25.0751V50.9998C25.0751 52.1518 25.3311 53.0158 25.8431 53.5918C26.3711 54.1518 27.1151 54.4318 28.0751 54.4318C28.7791 54.4318 29.3871 54.2878 29.8991 53.9998C30.4271 53.7118 30.8351 53.2798 31.1231 52.7038C31.4271 52.1278 31.5791 51.4158 31.5791 50.5678V44.0878H34.5791V56.9038H31.7231V53.4478L32.2271 54.5038C31.7951 55.3358 31.1631 55.9758 30.3311 56.4238C29.4991 56.8558 28.5871 57.0718 27.5951 57.0718ZM38.5071 56.9038V44.0878H41.3631V47.6158L41.0271 46.5838C41.4111 45.7198 42.0111 45.0638 42.8271 44.6158C43.6591 44.1678 44.6911 43.9438 45.9231 43.9438V46.7998C45.7951 46.7678 45.6751 46.7518 45.5631 46.7518C45.4511 46.7358 45.3391 46.7278 45.2271 46.7278C44.0911 46.7278 43.1871 47.0638 42.5151 47.7358C41.8431 48.3918 41.5071 49.3758 41.5071 50.6878V56.9038H38.5071ZM55.506 56.9038V40.1038H62.418C63.906 40.1038 65.178 40.3438 66.234 40.8238C67.306 41.3038 68.13 41.9918 68.706 42.8878C69.282 43.7838 69.57 44.8478 69.57 46.0798C69.57 47.3118 69.282 48.3758 68.706 49.2718C68.13 50.1678 67.306 50.8558 66.234 51.3358C65.178 51.8158 63.906 52.0558 62.418 52.0558H57.234L58.626 50.5918V56.9038H55.506ZM58.626 50.9278L57.234 49.4158H62.274C63.65 49.4158 64.682 49.1278 65.37 48.5518C66.074 47.9598 66.426 47.1358 66.426 46.0798C66.426 45.0078 66.074 44.1838 65.37 43.6078C64.682 43.0318 63.65 42.7438 62.274 42.7438H57.234L58.626 41.2078V50.9278ZM72.2805 56.9038V44.0878H75.1365V47.6158L74.8005 46.5838C75.1845 45.7198 75.7845 45.0638 76.6005 44.6158C77.4325 44.1678 78.4645 43.9438 79.6965 43.9438V46.7998C79.5685 46.7678 79.4485 46.7518 79.3365 46.7518C79.2245 46.7358 79.1125 46.7278 79.0005 46.7278C77.8645 46.7278 76.9605 47.0638 76.2885 47.7358C75.6165 48.3918 75.2805 49.3758 75.2805 50.6878V56.9038H72.2805ZM87.8843 57.0718C86.5723 57.0718 85.4043 56.7918 84.3803 56.2318C83.3563 55.6558 82.5483 54.8718 81.9563 53.8798C81.3643 52.8878 81.0683 51.7598 81.0683 50.4958C81.0683 49.2158 81.3643 48.0878 81.9563 47.1118C82.5483 46.1198 83.3563 45.3438 84.3803 44.7838C85.4043 44.2238 86.5723 43.9438 87.8843 43.9438C89.2123 43.9438 90.3883 44.2238 91.4123 44.7838C92.4523 45.3438 93.2603 46.1118 93.8363 47.0878C94.4283 48.0638 94.7243 49.1998 94.7243 50.4958C94.7243 51.7598 94.4283 52.8878 93.8363 53.8798C93.2603 54.8718 92.4523 55.6558 91.4123 56.2318C90.3883 56.7918 89.2123 57.0718 87.8843 57.0718ZM87.8843 54.5038C88.6203 54.5038 89.2763 54.3438 89.8523 54.0238C90.4283 53.7038 90.8763 53.2398 91.1963 52.6318C91.5323 52.0238 91.7003 51.3118 91.7003 50.4958C91.7003 49.6638 91.5323 48.9518 91.1963 48.3598C90.8763 47.7518 90.4283 47.2878 89.8523 46.9678C89.2763 46.6478 88.6283 46.4878 87.9083 46.4878C87.1723 46.4878 86.5163 46.6478 85.9403 46.9678C85.3803 47.2878 84.9323 47.7518 84.5963 48.3598C84.2603 48.9518 84.0923 49.6638 84.0923 50.4958C84.0923 51.3118 84.2603 52.0238 84.5963 52.6318C84.9323 53.2398 85.3803 53.7038 85.9403 54.0238C86.5163 54.3438 87.1643 54.5038 87.8843 54.5038ZM96.273 61.7278C95.713 61.7278 95.185 61.6638 94.689 61.5358C94.177 61.4238 93.745 61.2398 93.393 60.9838L94.257 58.7518C94.721 59.0878 95.305 59.2558 96.009 59.2558C96.553 59.2558 96.977 59.0798 97.281 58.7278C97.585 58.3918 97.737 57.8878 97.737 57.2158V44.0878H100.737V57.1438C100.737 58.5518 100.345 59.6638 99.561 60.4798C98.793 61.3118 97.697 61.7278 96.273 61.7278ZM99.225 41.9758C98.665 41.9758 98.201 41.7998 97.833 41.4478C97.481 41.0958 97.305 40.6718 97.305 40.1758C97.305 39.6638 97.481 39.2398 97.833 38.9038C98.201 38.5518 98.665 38.3758 99.225 38.3758C99.785 38.3758 100.241 38.5438 100.593 38.8798C100.961 39.1998 101.145 39.6078 101.145 40.1038C101.145 40.6318 100.969 41.0798 100.617 41.4478C100.265 41.7998 99.801 41.9758 99.225 41.9758ZM110.695 57.0718C109.271 57.0718 108.023 56.7918 106.951 56.2318C105.895 55.6558 105.071 54.8718 104.479 53.8798C103.903 52.8878 103.615 51.7598 103.615 50.4958C103.615 49.2158 103.895 48.0878 104.455 47.1118C105.031 46.1198 105.815 45.3438 106.807 44.7838C107.815 44.2238 108.959 43.9438 110.239 43.9438C111.487 43.9438 112.599 44.2158 113.575 44.7598C114.551 45.3038 115.319 46.0718 115.879 47.0638C116.439 48.0558 116.719 49.2238 116.719 50.5678C116.719 50.6958 116.711 50.8398 116.695 50.9998C116.695 51.1598 116.687 51.3118 116.671 51.4558H105.991V49.4638H115.087L113.911 50.0878C113.927 49.3518 113.775 48.7038 113.455 48.1438C113.135 47.5838 112.695 47.1438 112.135 46.8238C111.591 46.5038 110.959 46.3438 110.239 46.3438C109.503 46.3438 108.855 46.5038 108.295 46.8238C107.751 47.1438 107.319 47.5918 106.999 48.1678C106.695 48.7278 106.543 49.3918 106.543 50.1598V50.6398C106.543 51.4078 106.719 52.0878 107.071 52.6798C107.423 53.2718 107.919 53.7278 108.559 54.0478C109.199 54.3678 109.935 54.5278 110.767 54.5278C111.487 54.5278 112.135 54.4158 112.711 54.1918C113.287 53.9678 113.799 53.6158 114.247 53.1358L115.855 54.9838C115.279 55.6558 114.551 56.1758 113.671 56.5438C112.807 56.8958 111.815 57.0718 110.695 57.0718ZM125.481 57.0718C124.137 57.0718 122.937 56.7918 121.881 56.2318C120.841 55.6558 120.025 54.8718 119.433 53.8798C118.841 52.8878 118.545 51.7598 118.545 50.4958C118.545 49.2158 118.841 48.0878 119.433 47.1118C120.025 46.1198 120.841 45.3438 121.881 44.7838C122.937 44.2238 124.137 43.9438 125.481 43.9438C126.729 43.9438 127.825 44.1998 128.769 44.7118C129.729 45.2078 130.457 45.9438 130.953 46.9198L128.649 48.2638C128.265 47.6558 127.793 47.2078 127.233 46.9198C126.689 46.6318 126.097 46.4878 125.457 46.4878C124.721 46.4878 124.057 46.6478 123.465 46.9678C122.873 47.2878 122.409 47.7518 122.073 48.3598C121.737 48.9518 121.569 49.6638 121.569 50.4958C121.569 51.3278 121.737 52.0478 122.073 52.6558C122.409 53.2478 122.873 53.7038 123.465 54.0238C124.057 54.3438 124.721 54.5038 125.457 54.5038C126.097 54.5038 126.689 54.3598 127.233 54.0718C127.793 53.7838 128.265 53.3358 128.649 52.7278L130.953 54.0718C130.457 55.0318 129.729 55.7758 128.769 56.3038C127.825 56.8158 126.729 57.0718 125.481 57.0718ZM138.534 57.0718C137.126 57.0718 136.038 56.7118 135.27 55.9918C134.502 55.2558 134.118 54.1758 134.118 52.7518V41.2558H137.118V52.6798C137.118 53.2878 137.27 53.7598 137.574 54.0958C137.894 54.4318 138.334 54.5998 138.894 54.5998C139.566 54.5998 140.126 54.4238 140.574 54.0718L141.414 56.2078C141.062 56.4958 140.63 56.7118 140.118 56.8558C139.606 56.9998 139.078 57.0718 138.534 57.0718ZM132.006 46.5838V44.1838H140.55V46.5838H132.006ZM147.842 57.0718C146.77 57.0718 145.738 56.9358 144.746 56.6638C143.77 56.3758 142.994 56.0318 142.418 55.6318L143.57 53.3518C144.146 53.7198 144.834 54.0238 145.634 54.2638C146.434 54.5038 147.234 54.6238 148.034 54.6238C148.978 54.6238 149.658 54.4958 150.074 54.2398C150.506 53.9838 150.722 53.6398 150.722 53.2078C150.722 52.8558 150.578 52.5918 150.29 52.4158C150.002 52.2238 149.626 52.0798 149.162 51.9838C148.698 51.8878 148.178 51.7998 147.602 51.7198C147.042 51.6398 146.474 51.5358 145.898 51.4078C145.338 51.2638 144.826 51.0638 144.362 50.8078C143.898 50.5358 143.522 50.1758 143.234 49.7278C142.946 49.2798 142.802 48.6878 142.802 47.9518C142.802 47.1358 143.034 46.4318 143.498 45.8398C143.962 45.2318 144.61 44.7678 145.442 44.4478C146.29 44.1118 147.29 43.9438 148.442 43.9438C149.306 43.9438 150.178 44.0398 151.058 44.2318C151.938 44.4238 152.666 44.6958 153.242 45.0478L152.09 47.3278C151.482 46.9598 150.866 46.7118 150.242 46.5838C149.634 46.4398 149.026 46.3678 148.418 46.3678C147.506 46.3678 146.826 46.5038 146.378 46.7758C145.946 47.0478 145.73 47.3918 145.73 47.8078C145.73 48.1918 145.874 48.4798 146.162 48.6718C146.45 48.8638 146.826 49.0158 147.29 49.1278C147.754 49.2398 148.266 49.3358 148.826 49.4158C149.402 49.4798 149.97 49.5838 150.53 49.7278C151.09 49.8718 151.602 50.0718 152.066 50.3278C152.546 50.5678 152.93 50.9118 153.218 51.3598C153.506 51.8078 153.65 52.3918 153.65 53.1118C153.65 53.9118 153.41 54.6078 152.93 55.1998C152.466 55.7918 151.802 56.2558 150.938 56.5918C150.074 56.9118 149.042 57.0718 147.842 57.0718Z" fill="#3A3C40"/>
<path d="M387 65.8789C387 63.3617 377.526 61.321 365.838 61.321C354.151 61.321 344.677 63.3617 344.677 65.8789C344.677 67.4922 348.572 68.9087 354.444 69.7187V94.6913C354.444 95.2526 354.667 95.7908 355.063 96.1877C355.46 96.5845 355.999 96.8075 356.56 96.8075C357.121 96.8075 357.659 96.5845 358.056 96.1877C358.453 95.7908 358.676 95.2526 358.676 94.6913V70.1686C360.913 70.3419 363.324 70.4368 365.838 70.4368C368.353 70.4368 370.763 70.3419 373.001 70.1686V94.6913C373.001 95.2526 373.224 95.7908 373.621 96.1877C374.017 96.5845 374.556 96.8075 375.117 96.8075C375.678 96.8075 376.216 96.5845 376.613 96.1877C377.01 95.7908 377.233 95.2526 377.233 94.6913V69.7187C383.105 68.9087 387 67.4923 387 65.8789Z" fill="#CCCCCC"/>
<path d="M368.178 24.1603C373.213 24.1603 377.294 20.079 377.294 15.0445C377.294 10.01 373.213 5.92871 368.178 5.92871C363.144 5.92871 359.062 10.01 359.062 15.0445C359.062 20.079 363.144 24.1603 368.178 24.1603Z" fill="#2F2E41"/>
<path d="M345.493 93.0388H341.501L339.603 77.6436H345.494L345.493 93.0388Z" fill="#A0616A"/>
<path d="M338.651 91.8979H346.348V96.7446H333.804C333.804 96.1081 333.929 95.4779 334.173 94.8899C334.416 94.3018 334.773 93.7675 335.224 93.3175C335.674 92.8674 336.208 92.5104 336.796 92.2669C337.384 92.0233 338.014 91.8979 338.651 91.8979Z" fill="#2F2E41"/>
<path d="M339.262 90.8113L335.454 89.6162L338.251 74.3586L343.872 76.1222L339.262 90.8113Z" fill="#A0616A"/>
<path d="M333.075 87.6743L340.42 89.9791L338.969 94.6034L327 90.8474C327.191 90.2401 327.499 89.6764 327.907 89.1882C328.316 88.7001 328.816 88.2972 329.381 88.0026C329.945 87.7079 330.561 87.5273 331.195 87.471C331.829 87.4146 332.468 87.4837 333.075 87.6743Z" fill="#2F2E41"/>
<path d="M340.561 84.6684C340.386 84.6684 340.213 84.6369 340.049 84.5753L337.113 83.4743C336.783 83.3495 336.509 83.1105 336.341 82.8007C336.173 82.4909 336.122 82.1311 336.196 81.7867C336.936 78.4627 339.455 67.1458 340.835 61.0759C342.471 53.876 366.34 52.5381 367.356 52.4847L367.439 52.4802L370.124 55.8544C371.094 58.9731 370.787 61.4056 369.21 63.0846C364.609 67.9833 350.872 64.9435 349.234 64.5588L341.932 83.7251C341.826 84.0026 341.638 84.2414 341.393 84.4098C341.148 84.5782 340.858 84.6684 340.561 84.6684Z" fill="#2F2E41"/>
<path d="M344.793 86.9475C344.618 86.9475 344.445 86.9159 344.281 86.8543L341.345 85.7533C341.015 85.6286 340.742 85.3895 340.573 85.0798C340.405 84.77 340.354 84.4101 340.429 84.0657C341.168 80.7417 343.688 69.4249 345.067 63.3549C346.704 56.155 370.573 54.8171 371.588 54.7637L371.672 54.7593L374.357 58.1335C375.327 61.2521 375.019 63.6846 373.443 65.3636C368.842 70.262 355.105 67.2226 353.466 66.8379L346.165 86.0042C346.058 86.2817 345.87 86.5204 345.626 86.6888C345.381 86.8573 345.09 86.9474 344.793 86.9475Z" fill="#2F2E41"/>
<path d="M336.298 40.0599C336.405 40.2042 336.502 40.3568 336.586 40.5162L352.643 42.2079L354.954 39.0389L360.192 41.902L355.653 49.5923L335.96 44.5713C335.463 45.0556 334.831 45.3773 334.147 45.4934C333.463 45.6096 332.759 45.5147 332.131 45.2214C331.502 44.9281 330.977 44.4504 330.626 43.8517C330.276 43.2529 330.115 42.5616 330.167 41.8697C330.219 41.1778 330.48 40.518 330.916 39.9781C331.352 39.4382 331.942 39.0438 332.607 38.8473C333.273 38.6509 333.982 38.6617 334.641 38.8783C335.301 39.0949 335.878 39.507 336.298 40.0599L336.298 40.0599Z" fill="#A0616A"/>
<path d="M373.612 59.425C373.379 59.4242 373.151 59.3683 372.944 59.2618C369.734 57.6293 363.481 54.8019 357.684 54.2102C357.485 54.1907 357.293 54.13 357.12 54.0319C356.946 53.9338 356.795 53.8004 356.676 53.6405C356.555 53.4788 356.468 53.2939 356.421 53.0973C356.374 52.9006 356.369 52.6964 356.404 52.4975C356.928 49.6014 358.128 42.227 357.973 36.3166C357.928 34.4993 358.502 32.7206 359.601 31.2729C360.701 29.8252 362.26 28.7947 364.023 28.3508C365.084 28.0708 366.162 27.8584 367.25 27.7146C368.501 27.5562 369.771 27.6929 370.959 28.1138C372.148 28.5346 373.221 29.2279 374.093 30.1381C374.965 31.0484 375.612 32.1502 375.982 33.3554C376.352 34.5606 376.434 35.8357 376.222 37.0784C375.188 43.2034 374.146 51.758 375.052 57.7297C375.094 57.9974 375.06 58.2713 374.956 58.5212C374.851 58.7711 374.68 58.9872 374.46 59.1455C374.214 59.3261 373.917 59.424 373.612 59.425Z" fill="#61A9FF"/>
<path d="M358.27 43.846C358.07 43.8457 357.872 43.8043 357.689 43.7245L353.506 41.9139C353.149 41.7591 352.869 41.4694 352.726 41.1083C352.583 40.7472 352.589 40.3441 352.743 39.9875L355.977 32.5183C356.172 32.0668 356.454 31.6582 356.807 31.3158C357.16 30.9734 357.577 30.7039 358.034 30.5227C358.492 30.3416 358.98 30.2523 359.472 30.26C359.964 30.2677 360.449 30.3722 360.9 30.5675C361.352 30.7629 361.76 31.0453 362.103 31.3986C362.445 31.7519 362.714 32.1691 362.895 32.6265C363.076 33.0839 363.165 33.5724 363.157 34.0642C363.149 34.5559 363.044 35.0413 362.848 35.4926L359.615 42.9618C359.501 43.2241 359.313 43.4475 359.075 43.6045C358.836 43.7616 358.556 43.8455 358.27 43.846V43.846Z" fill="#61A9FF"/>
<path d="M367.845 25.1738C372.261 25.1738 375.841 21.5937 375.841 17.1776C375.841 12.7614 372.261 9.1814 367.845 9.1814C363.429 9.1814 359.849 12.7614 359.849 17.1776C359.849 21.5937 363.429 25.1738 367.845 25.1738Z" fill="#FFB8B8"/>
<path d="M359.705 13.2488C363.492 15.5609 367.762 16.9679 372.182 17.3602L370.867 15.7843C371.825 16.1384 372.833 16.3385 373.853 16.3771C374.872 16.3613 375.94 15.9689 376.518 15.1297C376.776 14.7125 376.929 14.2391 376.965 13.7499C377 13.2607 376.917 12.7702 376.722 12.3202C376.321 11.4226 375.697 10.6425 374.909 10.0542C373.514 8.94995 371.866 8.20822 370.114 7.89509C368.362 7.58196 366.56 7.70715 364.868 8.25952C363.707 8.60638 362.668 9.27314 361.868 10.1834C361.11 11.1186 359.651 11.9517 360.039 13.0912L359.705 13.2488Z" fill="#2F2E41"/>
<path d="M369.19 6.7959C366.668 4.23842 363.616 2.26485 360.249 1.01415C358.087 0.21345 355.735 -0.281249 353.475 0.173463C351.216 0.628174 349.079 2.19133 348.448 4.40832C347.933 6.22118 348.465 8.17307 349.265 9.8796C350.065 11.5861 351.133 13.1686 351.78 14.9388C352.44 16.745 352.639 18.6875 352.357 20.5899C352.076 22.4923 351.325 24.2944 350.17 25.8326C349.016 27.3708 347.496 28.5964 345.748 29.398C344 30.1997 342.08 30.5522 340.161 30.4233C342.381 30.721 344.427 31.7644 346.598 32.3197C348.768 32.875 351.329 32.8374 352.942 31.2827C354.648 29.6378 354.682 26.9634 354.599 24.5948C354.477 21.0739 354.354 17.5529 354.232 14.0319C354.169 12.2363 354.116 10.3831 354.763 8.70717C355.411 7.03121 356.95 5.56362 358.746 5.57887C360.108 5.59043 361.313 6.41533 362.405 7.22883C363.497 8.04233 364.653 8.91028 366.009 9.03128C367.366 9.15228 368.914 8.14854 368.813 6.7906" fill="#2F2E41"/>
<path d="M354.401 57.0506C353.872 57.05 353.348 56.9319 352.87 56.7047C352.391 56.4776 351.969 56.1472 351.633 55.7371C351.297 55.3271 351.057 54.8478 350.929 54.3336C350.801 53.8195 350.788 53.2833 350.893 52.7638C350.997 52.2443 351.215 51.7544 351.531 51.3293C351.847 50.9042 352.254 50.5546 352.722 50.3056C353.189 50.0566 353.706 49.9144 354.236 49.8893C354.765 49.8642 355.293 49.9568 355.782 50.1605H355.782C355.93 50.2226 356.072 50.2949 356.209 50.3768L370.775 43.8373L371.185 39.8868L377.463 39.7188L377.422 46.2957C377.414 47.0575 377.161 47.7966 376.7 48.4032C376.239 49.0098 375.594 49.4515 374.863 49.6629L357.828 54.5115C357.795 54.6241 357.756 54.7348 357.711 54.8433C357.438 55.4961 356.978 56.0538 356.389 56.4464C355.801 56.839 355.109 57.0492 354.401 57.0505V57.0506Z" fill="#FFB8B8"/>
<path d="M376.932 43.263C376.753 43.3533 376.558 43.4061 376.358 43.4181L371.809 43.6978C371.421 43.7211 371.04 43.5897 370.749 43.3325C370.458 43.0752 370.281 42.7131 370.257 42.3255L369.757 34.2018C369.726 33.7106 369.793 33.2181 369.952 32.7525C370.111 32.2868 370.361 31.8572 370.687 31.4882C371.013 31.1192 371.408 30.818 371.85 30.6019C372.292 30.3858 372.773 30.259 373.264 30.2287C373.755 30.1985 374.248 30.2655 374.713 30.4257C375.178 30.586 375.608 30.8365 375.976 31.1628C376.344 31.4891 376.645 31.8848 376.86 32.3274C377.076 32.77 377.202 33.2507 377.231 33.742L377.731 41.8656C377.748 42.151 377.682 42.4353 377.54 42.6835C377.398 42.9317 377.187 43.1331 376.932 43.263L376.932 43.263Z" fill="#61A9FF"/>
<path d="M367.044 58.1924H341.325C341.023 58.1924 340.733 58.0723 340.519 57.8586C340.305 57.6449 340.185 57.3551 340.185 57.0529C340.185 56.7507 340.305 56.4609 340.519 56.2472C340.733 56.0335 341.023 55.9134 341.325 55.9134H367.044C367.347 55.9134 367.636 56.0335 367.85 56.2472C368.064 56.4609 368.184 56.7507 368.184 57.0529C368.184 57.3551 368.064 57.6449 367.85 57.8586C367.636 58.0723 367.347 58.1924 367.044 58.1924Z" fill="#3F3D56"/>
<path d="M330.093 56.0761V40.1235C330.094 39.5624 330.317 39.0246 330.714 38.6278C331.11 38.2311 331.648 38.008 332.209 38.0073H361.184C361.745 38.008 362.283 38.2311 362.68 38.6278C363.077 39.0246 363.3 39.5624 363.301 40.1235V56.0761C363.3 56.6372 363.077 57.175 362.68 57.5718C362.283 57.9685 361.745 58.1916 361.184 58.1923H332.209C331.648 58.1916 331.11 57.9685 330.714 57.5718C330.317 57.175 330.094 56.6372 330.093 56.0761Z" fill="#3F3D56"/>
<path d="M346.697 50.0532C347.776 50.0532 348.65 49.1787 348.65 48.0999C348.65 47.021 347.776 46.1465 346.697 46.1465C345.618 46.1465 344.743 47.021 344.743 48.0999C344.743 49.1787 345.618 50.0532 346.697 50.0532Z" fill="white"/>
<path d="M312.017 61.0667H266.983C266.458 61.0661 265.953 60.8569 265.582 60.4851C265.21 60.1133 265.001 59.6092 265 59.0833V28.9833C265.001 28.4575 265.21 27.9534 265.582 27.5816C265.953 27.2098 266.458 27.0006 266.983 27H312.017C312.542 27.0006 313.047 27.2098 313.418 27.5816C313.79 27.9534 313.999 28.4575 314 28.9833V59.0833C313.999 59.6092 313.79 60.1133 313.418 60.4851C313.047 60.8569 312.542 61.066 312.017 61.0667Z" fill="#7EB9FF"/>
<path d="M274.392 39.8334C274.022 39.8334 273.661 39.7239 273.355 39.5188C273.048 39.3137 272.808 39.0222 272.667 38.6811C272.526 38.34 272.489 37.9647 272.561 37.6026C272.633 37.2405 272.811 36.9079 273.072 36.6468C273.333 36.3858 273.665 36.208 274.027 36.136C274.389 36.0639 274.765 36.1009 275.106 36.2422C275.447 36.3835 275.739 36.6227 275.944 36.9297C276.149 37.2367 276.258 37.5976 276.258 37.9668C276.258 38.4617 276.061 38.9361 275.711 39.2861C275.361 39.636 274.886 39.8329 274.392 39.8334Z" fill="white"/>
<path d="M274.392 45.9001C274.022 45.9001 273.661 45.7906 273.355 45.5855C273.048 45.3804 272.808 45.0888 272.667 44.7478C272.526 44.4067 272.489 44.0313 272.561 43.6692C272.633 43.3071 272.811 42.9745 273.072 42.7135C273.333 42.4524 273.665 42.2746 274.027 42.2026C274.389 42.1306 274.765 42.1675 275.106 42.3088C275.447 42.4501 275.739 42.6894 275.944 42.9963C276.149 43.3033 276.258 43.6642 276.258 44.0334C276.258 44.5283 276.061 45.0028 275.711 45.3527C275.361 45.7027 274.886 45.8995 274.392 45.9001Z" fill="white"/>
<path d="M274.392 51.967C274.022 51.967 273.661 51.8575 273.355 51.6524C273.048 51.4473 272.808 51.1557 272.667 50.8146C272.526 50.4736 272.489 50.0982 272.561 49.7361C272.633 49.374 272.811 49.0414 273.072 48.7804C273.333 48.5193 273.665 48.3415 274.027 48.2695C274.389 48.1975 274.765 48.2344 275.106 48.3757C275.447 48.517 275.739 48.7563 275.944 49.0632C276.149 49.3702 276.258 49.7311 276.258 50.1003C276.258 50.5952 276.061 51.0697 275.711 51.4196C275.361 51.7696 274.886 51.9664 274.392 51.967Z" fill="white"/>
<path d="M283.258 36.45C282.856 36.45 282.47 36.6097 282.186 36.8942C281.901 37.1786 281.742 37.5644 281.742 37.9666C281.742 38.3689 281.901 38.7546 282.186 39.0391C282.47 39.3235 282.856 39.4833 283.258 39.4833H304.958C305.361 39.4833 305.746 39.3235 306.031 39.0391C306.315 38.7546 306.475 38.3689 306.475 37.9666C306.475 37.5644 306.315 37.1786 306.031 36.8942C305.746 36.6097 305.361 36.45 304.958 36.45H283.258Z" fill="white"/>
<path d="M283.258 42.5164C282.856 42.5164 282.47 42.6761 282.186 42.9606C281.901 43.245 281.742 43.6308 281.742 44.033C281.742 44.4353 281.901 44.821 282.186 45.1055C282.47 45.3899 282.856 45.5497 283.258 45.5497H304.958C305.361 45.5497 305.746 45.3899 306.031 45.1055C306.315 44.821 306.475 44.4353 306.475 44.033C306.475 43.6308 306.315 43.245 306.031 42.9606C305.746 42.6761 305.361 42.5164 304.958 42.5164H283.258Z" fill="white"/>
<path d="M283.258 48.5833C282.856 48.5833 282.47 48.743 282.186 49.0275C281.901 49.3119 281.742 49.6977 281.742 50.0999C281.742 50.5022 281.901 50.8879 282.186 51.1724C282.47 51.4568 282.856 51.6166 283.258 51.6166H304.958C305.361 51.6166 305.746 51.4568 306.031 51.1724C306.315 50.8879 306.475 50.5022 306.475 50.0999C306.475 49.6977 306.315 49.3119 306.031 49.0275C305.746 48.743 305.361 48.5833 304.958 48.5833H283.258Z" fill="white"/>
<path d="M267.429 20.0068C266.857 16.2908 266.857 12.5092 267.429 8.79319C267.465 8.57202 267.579 8.3709 267.75 8.22564C267.92 8.08039 268.137 8.00043 268.361 8H277.132C277.274 7.99955 277.415 8.03154 277.543 8.09353C277.671 8.15553 277.783 8.2459 277.87 8.35775C277.96 8.47113 278.023 8.60346 278.053 8.74468C278.084 8.8859 278.082 9.03228 278.048 9.17268C277.228 12.6092 277.227 16.1907 278.048 19.6273C278.082 19.7677 278.084 19.914 278.053 20.0553C278.023 20.1965 277.96 20.3288 277.87 20.4422C277.783 20.5541 277.671 20.6444 277.543 20.7064C277.415 20.7684 277.274 20.8004 277.132 20.7999H268.361C268.137 20.7995 267.92 20.7196 267.75 20.5743C267.579 20.4291 267.465 20.2279 267.429 20.0068Z" fill="#61A9FF"/>
<path d="M243.429 20.1593C242.857 16.4434 242.857 12.6617 243.429 8.94577C243.465 8.72461 243.579 8.52351 243.75 8.37826C243.92 8.23301 244.137 8.15304 244.361 8.15259H253.132C253.274 8.15214 253.415 8.18413 253.543 8.24612C253.671 8.30812 253.783 8.39848 253.87 8.51033C253.96 8.62371 254.023 8.75605 254.053 8.89727C254.084 9.03849 254.082 9.18487 254.048 9.32527C253.228 12.7618 253.228 16.3433 254.048 19.7799C254.082 19.9203 254.084 20.0666 254.053 20.2079C254.023 20.3491 253.96 20.4814 253.87 20.5948C253.783 20.7066 253.671 20.797 253.543 20.859C253.415 20.921 253.274 20.953 253.132 20.9525H244.361C244.137 20.9521 243.92 20.8721 243.75 20.7269C243.579 20.5816 243.465 20.3805 243.429 20.1593Z" fill="#FF6584"/>
<path d="M243.208 40.6467C243.117 40.5315 243.053 40.3969 243.022 40.2534C242.991 40.1098 242.993 39.961 243.028 39.8183C243.862 36.3253 243.862 32.6849 243.028 29.1919C242.993 29.0492 242.991 28.9004 243.022 28.7568C243.053 28.6133 243.117 28.4788 243.208 28.3635C243.297 28.2498 243.411 28.158 243.541 28.095C243.671 28.0321 243.814 27.9996 243.958 28H252.874C253.101 28.0004 253.322 28.0817 253.495 28.2293C253.669 28.377 253.784 28.5814 253.821 28.8062C254.403 32.5832 254.403 36.427 253.821 40.204C253.784 40.4288 253.669 40.6332 253.495 40.7809C253.322 40.9285 253.101 41.0098 252.874 41.0102H243.958C243.814 41.0107 243.671 40.9782 243.541 40.9152C243.411 40.8522 243.297 40.7604 243.208 40.6467Z" fill="#61A9FF"/>
<path d="M251.153 32.8003H246.457C246.282 32.8001 246.114 32.7305 245.99 32.6068C245.867 32.4831 245.797 32.3153 245.797 32.1404V31.8601C245.797 31.6852 245.867 31.5174 245.99 31.3937C246.114 31.27 246.282 31.2004 246.457 31.2002H251.153C251.328 31.2004 251.496 31.27 251.62 31.3937C251.743 31.5174 251.813 31.6852 251.813 31.8601V32.1404C251.813 32.3153 251.743 32.4831 251.62 32.6068C251.496 32.7305 251.328 32.8001 251.153 32.8003Z" fill="white"/>
<path d="M251.153 35.5601H246.457C246.282 35.5599 246.114 35.4903 245.99 35.3666C245.867 35.2429 245.797 35.0751 245.797 34.9001V34.6199C245.797 34.4449 245.867 34.2772 245.99 34.1535C246.114 34.0297 246.282 33.9602 246.457 33.96H251.153C251.328 33.9602 251.496 34.0297 251.62 34.1535C251.743 34.2772 251.813 34.4449 251.813 34.6199V34.9001C251.813 35.0751 251.743 35.2429 251.62 35.3666C251.496 35.4903 251.328 35.5599 251.153 35.5601Z" fill="white"/>
<path d="M250.433 13.5811H245.83C245.655 13.5809 245.488 13.5113 245.364 13.3876C245.24 13.2639 245.171 13.0961 245.17 12.9211V12.6634C245.171 12.4884 245.24 12.3206 245.364 12.1969C245.488 12.0732 245.655 12.0036 245.83 12.0034H250.433C250.608 12.0036 250.776 12.0732 250.9 12.1969C251.023 12.3206 251.093 12.4884 251.093 12.6634V12.9211C251.093 13.0961 251.023 13.2639 250.9 13.3876C250.776 13.5113 250.608 13.5809 250.433 13.5811Z" fill="white"/>
<path d="M250.433 16.2968H245.83C245.655 16.2966 245.488 16.227 245.364 16.1033C245.24 15.9795 245.171 15.8118 245.17 15.6368V15.3789C245.171 15.204 245.24 15.0362 245.364 14.9125C245.488 14.7888 245.655 14.7192 245.83 14.719H250.433C250.608 14.7192 250.776 14.7888 250.9 14.9125C251.023 15.0362 251.093 15.204 251.093 15.3789V15.6368C251.093 15.8118 251.023 15.9795 250.9 16.1033C250.776 16.227 250.608 16.2966 250.433 16.2968Z" fill="white"/>
<path d="M266.311 2.57778H261.708C261.533 2.57759 261.365 2.508 261.242 2.38428C261.118 2.26055 261.048 2.09281 261.048 1.91784V1.65994C261.048 1.48497 261.118 1.31722 261.242 1.1935C261.365 1.06978 261.533 1.00019 261.708 1H266.311C266.486 1.00019 266.653 1.06978 266.777 1.1935C266.901 1.31722 266.971 1.48497 266.971 1.65994V1.91784C266.971 2.09281 266.901 2.26055 266.777 2.38428C266.653 2.508 266.486 2.57759 266.311 2.57778Z" fill="white"/>
<path d="M274.593 13.6998H269.991C269.816 13.6997 269.648 13.6301 269.524 13.5063C269.4 13.3826 269.331 13.2149 269.331 13.0399V12.782C269.331 12.607 269.4 12.4393 269.524 12.3156C269.648 12.1919 269.816 12.1223 269.991 12.1221H274.593C274.768 12.1223 274.936 12.1919 275.06 12.3156C275.183 12.4393 275.253 12.607 275.253 12.782V13.0399C275.253 13.2149 275.183 13.3826 275.06 13.5063C274.936 13.6301 274.768 13.6997 274.593 13.6998Z" fill="white"/>
</svg>
