<svg width="356" height="56" viewBox="0 0 356 56" fill="none" xmlns="http://www.w3.org/2000/svg">
<path d="M25.816 19.184V17.024L34.096 6.2H37.432L29.272 17.024L27.712 16.544H41.032V19.184H25.816ZM35.032 23V19.184L35.128 16.544V13.16H38.056V23H35.032Z" fill="#61A9FF"/>
<path d="M54.3334 5.00008C54.3334 5.78625 54.1397 6.51129 53.7523 7.17521C53.3648 7.83913 52.8391 8.36481 52.1752 8.75225C51.5113 9.13969 50.7863 9.33342 50.0001 9.33342C49.2139 9.33342 48.4889 9.13969 47.825 8.75225C47.161 8.36481 46.6354 7.83913 46.2479 7.17521C45.8605 6.51129 45.6667 5.78625 45.6667 5.00008C45.6667 4.21391 45.8605 3.48887 46.2479 2.82495C46.6354 2.16103 47.161 1.63535 47.825 1.24791C48.4889 0.860469 49.2139 0.666748 50.0001 0.666748C50.7863 0.666748 51.5113 0.860469 52.1752 1.24791C52.8391 1.63535 53.3648 2.16103 53.7523 2.82495C54.1397 3.48887 54.3334 4.21391 54.3334 5.00008Z" fill="#2940D3"/>
<path d="M26.008 47.098C25.2427 47.098 24.5613 46.9347 23.964 46.608C23.3667 46.272 22.8953 45.8147 22.55 45.236C22.2047 44.6573 22.032 43.9993 22.032 43.262C22.032 42.5153 22.2047 41.8573 22.55 41.288C22.8953 40.7093 23.3667 40.2567 23.964 39.93C24.5613 39.6033 25.2427 39.44 26.008 39.44C26.7827 39.44 27.4687 39.6033 28.066 39.93C28.6727 40.2567 29.144 40.7047 29.48 41.274C29.8253 41.8433 29.998 42.506 29.998 43.262C29.998 43.9993 29.8253 44.6573 29.48 45.236C29.144 45.8147 28.6727 46.272 28.066 46.608C27.4687 46.9347 26.7827 47.098 26.008 47.098ZM26.008 45.6C26.4373 45.6 26.82 45.5067 27.156 45.32C27.492 45.1333 27.7533 44.8627 27.94 44.508C28.136 44.1533 28.234 43.738 28.234 43.262C28.234 42.7767 28.136 42.3613 27.94 42.016C27.7533 41.6613 27.492 41.3907 27.156 41.204C26.82 41.0173 26.442 40.924 26.022 40.924C25.5927 40.924 25.21 41.0173 24.874 41.204C24.5473 41.3907 24.286 41.6613 24.09 42.016C23.894 42.3613 23.796 42.7767 23.796 43.262C23.796 43.738 23.894 44.1533 24.09 44.508C24.286 44.8627 24.5473 45.1333 24.874 45.32C25.21 45.5067 25.588 45.6 26.008 45.6ZM35.8154 47.098C35.2088 47.098 34.6534 46.958 34.1494 46.678C33.6548 46.398 33.2581 45.978 32.9594 45.418C32.6701 44.8487 32.5254 44.13 32.5254 43.262C32.5254 42.3847 32.6654 41.666 32.9454 41.106C33.2348 40.546 33.6268 40.1307 34.1214 39.86C34.6161 39.58 35.1808 39.44 35.8154 39.44C36.5528 39.44 37.2014 39.5987 37.7614 39.916C38.3308 40.2333 38.7788 40.6767 39.1054 41.246C39.4414 41.8153 39.6094 42.4873 39.6094 43.262C39.6094 44.0367 39.4414 44.7133 39.1054 45.292C38.7788 45.8613 38.3308 46.3047 37.7614 46.622C37.2014 46.9393 36.5528 47.098 35.8154 47.098ZM31.6714 49.716V39.524H33.3374V41.288L33.2814 43.276L33.4214 45.264V49.716H31.6714ZM35.6194 45.6C36.0394 45.6 36.4128 45.5067 36.7394 45.32C37.0754 45.1333 37.3414 44.8627 37.5374 44.508C37.7334 44.1533 37.8314 43.738 37.8314 43.262C37.8314 42.7767 37.7334 42.3613 37.5374 42.016C37.3414 41.6613 37.0754 41.3907 36.7394 41.204C36.4128 41.0173 36.0394 40.924 35.6194 40.924C35.1994 40.924 34.8214 41.0173 34.4854 41.204C34.1494 41.3907 33.8834 41.6613 33.6874 42.016C33.4914 42.3613 33.3934 42.7767 33.3934 43.262C33.3934 43.738 33.4914 44.1533 33.6874 44.508C33.8834 44.8627 34.1494 45.1333 34.4854 45.32C34.8214 45.5067 35.1994 45.6 35.6194 45.6ZM44.7831 47.098C43.9524 47.098 43.2244 46.9347 42.5991 46.608C41.9831 46.272 41.5024 45.8147 41.1571 45.236C40.8211 44.6573 40.6531 43.9993 40.6531 43.262C40.6531 42.5153 40.8164 41.8573 41.1431 41.288C41.4791 40.7093 41.9364 40.2567 42.5151 39.93C43.1031 39.6033 43.7704 39.44 44.5171 39.44C45.2451 39.44 45.8938 39.5987 46.4631 39.916C47.0324 40.2333 47.4804 40.6813 47.8071 41.26C48.1338 41.8387 48.2971 42.52 48.2971 43.304C48.2971 43.3787 48.2924 43.4627 48.2831 43.556C48.2831 43.6493 48.2784 43.738 48.2691 43.822H42.0391V42.66H47.3451L46.6591 43.024C46.6684 42.5947 46.5798 42.2167 46.3931 41.89C46.2064 41.5633 45.9498 41.3067 45.6231 41.12C45.3058 40.9333 44.9371 40.84 44.5171 40.84C44.0878 40.84 43.7098 40.9333 43.3831 41.12C43.0658 41.3067 42.8138 41.568 42.6271 41.904C42.4498 42.2307 42.3611 42.618 42.3611 43.066V43.346C42.3611 43.794 42.4638 44.1907 42.6691 44.536C42.8744 44.8813 43.1638 45.1473 43.5371 45.334C43.9104 45.5207 44.3398 45.614 44.8251 45.614C45.2451 45.614 45.6231 45.5487 45.9591 45.418C46.2951 45.2873 46.5938 45.082 46.8551 44.802L47.7931 45.88C47.4571 46.272 47.0324 46.5753 46.5191 46.79C46.0151 46.9953 45.4364 47.098 44.7831 47.098ZM54.2201 39.44C54.8174 39.44 55.3494 39.5567 55.8161 39.79C56.2921 40.0233 56.6654 40.3827 56.9361 40.868C57.2067 41.344 57.3421 41.96 57.3421 42.716V47H55.5921V42.94C55.5921 42.2773 55.4334 41.7827 55.1161 41.456C54.8081 41.1293 54.3741 40.966 53.8141 40.966C53.4034 40.966 53.0394 41.05 52.7221 41.218C52.4047 41.386 52.1574 41.638 51.9801 41.974C51.8121 42.3007 51.7281 42.716 51.7281 43.22V47H49.9781V39.524H51.6441V41.54L51.3501 40.924C51.6114 40.448 51.9894 40.084 52.4841 39.832C52.9881 39.5707 53.5667 39.44 54.2201 39.44Z" fill="#61A9FF"/>
<path d="M0 55C0 54.4477 0.447715 54 1 54H79C79.5523 54 80 54.4477 80 55C80 55.5523 79.5523 56 79 56H0.999999C0.447714 56 0 55.5523 0 55Z" fill="#BABFC5"/>
<path d="M162.336 26.24C161.152 26.24 159.992 26.072 158.856 25.736C157.736 25.384 156.792 24.904 156.024 24.296L157.368 21.872C157.976 22.368 158.712 22.768 159.576 23.072C160.44 23.376 161.344 23.528 162.288 23.528C163.408 23.528 164.28 23.304 164.904 22.856C165.528 22.392 165.84 21.768 165.84 20.984C165.84 20.216 165.552 19.608 164.976 19.16C164.4 18.712 163.472 18.488 162.192 18.488H160.656V16.352L165.456 10.64L165.864 11.816H156.84V9.2H168.288V11.288L163.488 17L161.856 16.04H162.792C164.856 16.04 166.4 16.504 167.424 17.432C168.464 18.344 168.984 19.52 168.984 20.96C168.984 21.904 168.744 22.776 168.264 23.576C167.784 24.376 167.048 25.024 166.056 25.52C165.08 26 163.84 26.24 162.336 26.24Z" fill="#3A3C40"/>
<path d="M183.333 8.00008C183.333 8.78625 183.14 9.51129 182.752 10.1752C182.365 10.8391 181.839 11.3648 181.175 11.7523C180.511 12.1397 179.786 12.3334 179 12.3334C178.214 12.3334 177.489 12.1397 176.825 11.7523C176.161 11.3648 175.635 10.8391 175.248 10.1752C174.86 9.51129 174.667 8.78625 174.667 8.00008C174.667 7.21391 174.86 6.48887 175.248 5.82495C175.635 5.16103 176.161 4.63535 176.825 4.24791C177.489 3.86047 178.214 3.66675 179 3.66675C179.786 3.66675 180.511 3.86047 181.175 4.24791C181.839 4.63535 182.365 5.16103 182.752 5.82495C183.14 6.48887 183.333 7.21391 183.333 8.00008Z" fill="#FF9777"/>
<path d="M141.908 50.14C141.143 50.14 140.438 50.014 139.794 49.762C139.15 49.51 138.59 49.16 138.114 48.712C137.638 48.2547 137.269 47.7227 137.008 47.116C136.747 46.5 136.616 45.828 136.616 45.1C136.616 44.372 136.747 43.7047 137.008 43.098C137.269 42.482 137.638 41.95 138.114 41.502C138.59 41.0447 139.15 40.69 139.794 40.438C140.438 40.186 141.138 40.06 141.894 40.06C142.659 40.06 143.359 40.186 143.994 40.438C144.638 40.69 145.198 41.0447 145.674 41.502C146.15 41.95 146.519 42.482 146.78 43.098C147.041 43.7047 147.172 44.372 147.172 45.1C147.172 45.828 147.041 46.5 146.78 47.116C146.519 47.732 146.15 48.264 145.674 48.712C145.198 49.16 144.638 49.51 143.994 49.762C143.359 50.014 142.664 50.14 141.908 50.14ZM141.894 48.544C142.389 48.544 142.846 48.46 143.266 48.292C143.686 48.124 144.05 47.886 144.358 47.578C144.666 47.2607 144.904 46.8967 145.072 46.486C145.249 46.066 145.338 45.604 145.338 45.1C145.338 44.596 145.249 44.1387 145.072 43.728C144.904 43.308 144.666 42.944 144.358 42.636C144.05 42.3187 143.686 42.076 143.266 41.908C142.846 41.74 142.389 41.656 141.894 41.656C141.399 41.656 140.942 41.74 140.522 41.908C140.111 42.076 139.747 42.3187 139.43 42.636C139.122 42.944 138.879 43.308 138.702 43.728C138.534 44.1387 138.45 44.596 138.45 45.1C138.45 45.5947 138.534 46.052 138.702 46.472C138.879 46.892 139.122 47.2607 139.43 47.578C139.738 47.886 140.102 48.124 140.522 48.292C140.942 48.46 141.399 48.544 141.894 48.544ZM153.175 42.44C153.772 42.44 154.304 42.5567 154.771 42.79C155.247 43.0233 155.62 43.3827 155.891 43.868C156.162 44.344 156.297 44.96 156.297 45.716V50H154.547V45.94C154.547 45.2773 154.388 44.7827 154.071 44.456C153.763 44.1293 153.329 43.966 152.769 43.966C152.358 43.966 151.994 44.05 151.677 44.218C151.36 44.386 151.112 44.638 150.935 44.974C150.767 45.3007 150.683 45.716 150.683 46.22V50H148.933V42.524H150.599V44.54L150.305 43.924C150.566 43.448 150.944 43.084 151.439 42.832C151.943 42.5707 152.522 42.44 153.175 42.44ZM165.774 52.814C165.084 52.814 164.407 52.7207 163.744 52.534C163.091 52.3567 162.554 52.0953 162.134 51.75L162.918 50.434C163.245 50.7047 163.656 50.9193 164.15 51.078C164.654 51.246 165.163 51.33 165.676 51.33C166.498 51.33 167.1 51.1387 167.482 50.756C167.865 50.3827 168.056 49.818 168.056 49.062V47.732L168.196 46.038L168.14 44.344V42.524H169.806V48.866C169.806 50.2193 169.461 51.2133 168.77 51.848C168.08 52.492 167.081 52.814 165.774 52.814ZM165.55 49.664C164.841 49.664 164.197 49.5147 163.618 49.216C163.049 48.908 162.596 48.4833 162.26 47.942C161.934 47.4007 161.77 46.766 161.77 46.038C161.77 45.3193 161.934 44.6893 162.26 44.148C162.596 43.6067 163.049 43.1867 163.618 42.888C164.197 42.5893 164.841 42.44 165.55 42.44C166.185 42.44 166.754 42.566 167.258 42.818C167.762 43.07 168.164 43.462 168.462 43.994C168.77 44.526 168.924 45.2073 168.924 46.038C168.924 46.8687 168.77 47.5547 168.462 48.096C168.164 48.628 167.762 49.0247 167.258 49.286C166.754 49.538 166.185 49.664 165.55 49.664ZM165.816 48.18C166.255 48.18 166.647 48.0913 166.992 47.914C167.338 47.7273 167.604 47.4753 167.79 47.158C167.986 46.8313 168.084 46.458 168.084 46.038C168.084 45.618 167.986 45.2493 167.79 44.932C167.604 44.6053 167.338 44.358 166.992 44.19C166.647 44.0127 166.255 43.924 165.816 43.924C165.378 43.924 164.981 44.0127 164.626 44.19C164.281 44.358 164.01 44.6053 163.814 44.932C163.628 45.2493 163.534 45.618 163.534 46.038C163.534 46.458 163.628 46.8313 163.814 47.158C164.01 47.4753 164.281 47.7273 164.626 47.914C164.981 48.0913 165.378 48.18 165.816 48.18ZM175.467 50.098C174.702 50.098 174.02 49.9347 173.423 49.608C172.826 49.272 172.354 48.8147 172.009 48.236C171.664 47.6573 171.491 46.9993 171.491 46.262C171.491 45.5153 171.664 44.8573 172.009 44.288C172.354 43.7093 172.826 43.2567 173.423 42.93C174.02 42.6033 174.702 42.44 175.467 42.44C176.242 42.44 176.928 42.6033 177.525 42.93C178.132 43.2567 178.603 43.7047 178.939 44.274C179.284 44.8433 179.457 45.506 179.457 46.262C179.457 46.9993 179.284 47.6573 178.939 48.236C178.603 48.8147 178.132 49.272 177.525 49.608C176.928 49.9347 176.242 50.098 175.467 50.098ZM175.467 48.6C175.896 48.6 176.279 48.5067 176.615 48.32C176.951 48.1333 177.212 47.8627 177.399 47.508C177.595 47.1533 177.693 46.738 177.693 46.262C177.693 45.7767 177.595 45.3613 177.399 45.016C177.212 44.6613 176.951 44.3907 176.615 44.204C176.279 44.0173 175.901 43.924 175.481 43.924C175.052 43.924 174.669 44.0173 174.333 44.204C174.006 44.3907 173.745 44.6613 173.549 45.016C173.353 45.3613 173.255 45.7767 173.255 46.262C173.255 46.738 173.353 47.1533 173.549 47.508C173.745 47.8627 174.006 48.1333 174.333 48.32C174.669 48.5067 175.047 48.6 175.467 48.6ZM181.13 50V42.524H182.88V50H181.13ZM182.012 41.292C181.686 41.292 181.415 41.1893 181.2 40.984C180.995 40.7787 180.892 40.5313 180.892 40.242C180.892 39.9433 180.995 39.696 181.2 39.5C181.415 39.2947 181.686 39.192 182.012 39.192C182.339 39.192 182.605 39.29 182.81 39.486C183.025 39.6727 183.132 39.9107 183.132 40.2C183.132 40.508 183.03 40.7693 182.824 40.984C182.619 41.1893 182.348 41.292 182.012 41.292ZM189.419 42.44C190.017 42.44 190.549 42.5567 191.015 42.79C191.491 43.0233 191.865 43.3827 192.135 43.868C192.406 44.344 192.541 44.96 192.541 45.716V50H190.791V45.94C190.791 45.2773 190.633 44.7827 190.315 44.456C190.007 44.1293 189.573 43.966 189.013 43.966C188.603 43.966 188.239 44.05 187.921 44.218C187.604 44.386 187.357 44.638 187.179 44.974C187.011 45.3007 186.927 45.716 186.927 46.22V50H185.177V42.524H186.843V44.54L186.549 43.924C186.811 43.448 187.189 43.084 187.683 42.832C188.187 42.5707 188.766 42.44 189.419 42.44ZM198.163 52.814C197.472 52.814 196.796 52.7207 196.133 52.534C195.48 52.3567 194.943 52.0953 194.523 51.75L195.307 50.434C195.634 50.7047 196.044 50.9193 196.539 51.078C197.043 51.246 197.552 51.33 198.065 51.33C198.886 51.33 199.488 51.1387 199.871 50.756C200.254 50.3827 200.445 49.818 200.445 49.062V47.732L200.585 46.038L200.529 44.344V42.524H202.195V48.866C202.195 50.2193 201.85 51.2133 201.159 51.848C200.468 52.492 199.47 52.814 198.163 52.814ZM197.939 49.664C197.23 49.664 196.586 49.5147 196.007 49.216C195.438 48.908 194.985 48.4833 194.649 47.942C194.322 47.4007 194.159 46.766 194.159 46.038C194.159 45.3193 194.322 44.6893 194.649 44.148C194.985 43.6067 195.438 43.1867 196.007 42.888C196.586 42.5893 197.23 42.44 197.939 42.44C198.574 42.44 199.143 42.566 199.647 42.818C200.151 43.07 200.552 43.462 200.851 43.994C201.159 44.526 201.313 45.2073 201.313 46.038C201.313 46.8687 201.159 47.5547 200.851 48.096C200.552 48.628 200.151 49.0247 199.647 49.286C199.143 49.538 198.574 49.664 197.939 49.664ZM198.205 48.18C198.644 48.18 199.036 48.0913 199.381 47.914C199.726 47.7273 199.992 47.4753 200.179 47.158C200.375 46.8313 200.473 46.458 200.473 46.038C200.473 45.618 200.375 45.2493 200.179 44.932C199.992 44.6053 199.726 44.358 199.381 44.19C199.036 44.0127 198.644 43.924 198.205 43.924C197.766 43.924 197.37 44.0127 197.015 44.19C196.67 44.358 196.399 44.6053 196.203 44.932C196.016 45.2493 195.923 45.618 195.923 46.038C195.923 46.458 196.016 46.8313 196.203 47.158C196.399 47.4753 196.67 47.7273 197.015 47.914C197.37 48.0913 197.766 48.18 198.205 48.18Z" fill="#3A3C40"/>
<path d="M295.244 26V10.4L296.612 11.816H291.692V9.2H298.364V26H295.244ZM304.385 26V10.4L305.753 11.816H300.833V9.2H307.505V26H304.385Z" fill="#3A3C40"/>
<path d="M323.833 8.00008C323.833 8.78625 323.64 9.51129 323.252 10.1752C322.865 10.8391 322.339 11.3648 321.675 11.7523C321.011 12.1397 320.286 12.3334 319.5 12.3334C318.714 12.3334 317.989 12.1397 317.325 11.7523C316.661 11.3648 316.135 10.8391 315.748 10.1752C315.36 9.51129 315.167 8.78625 315.167 8.00008C315.167 7.21391 315.36 6.48887 315.748 5.82495C316.135 5.16103 316.661 4.63535 317.325 4.24791C317.989 3.86047 318.714 3.66675 319.5 3.66675C320.286 3.66675 321.011 3.86047 321.675 4.24791C322.339 4.63535 322.865 5.16103 323.252 5.82495C323.64 6.48887 323.833 7.21391 323.833 8.00008Z" fill="#2940D3"/>
<path d="M261.316 50V40.2H265.348C266.216 40.2 266.958 40.34 267.574 40.62C268.199 40.9 268.68 41.3013 269.016 41.824C269.352 42.3467 269.52 42.9673 269.52 43.686C269.52 44.4047 269.352 45.0253 269.016 45.548C268.68 46.0707 268.199 46.472 267.574 46.752C266.958 47.032 266.216 47.172 265.348 47.172H262.324L263.136 46.318V50H261.316ZM263.136 46.514L262.324 45.632H265.264C266.067 45.632 266.669 45.464 267.07 45.128C267.481 44.7827 267.686 44.302 267.686 43.686C267.686 43.0607 267.481 42.58 267.07 42.244C266.669 41.908 266.067 41.74 265.264 41.74H262.324L263.136 40.844V46.514ZM271.101 50V42.524H272.767V44.582L272.571 43.98C272.795 43.476 273.145 43.0933 273.621 42.832C274.106 42.5707 274.708 42.44 275.427 42.44V44.106C275.352 44.0873 275.282 44.078 275.217 44.078C275.152 44.0687 275.086 44.064 275.021 44.064C274.358 44.064 273.831 44.26 273.439 44.652C273.047 45.0347 272.851 45.6087 272.851 46.374V50H271.101ZM280.203 50.098C279.438 50.098 278.757 49.9347 278.159 49.608C277.562 49.272 277.091 48.8147 276.745 48.236C276.4 47.6573 276.227 46.9993 276.227 46.262C276.227 45.5153 276.4 44.8573 276.745 44.288C277.091 43.7093 277.562 43.2567 278.159 42.93C278.757 42.6033 279.438 42.44 280.203 42.44C280.978 42.44 281.664 42.6033 282.261 42.93C282.868 43.2567 283.339 43.7047 283.675 44.274C284.021 44.8433 284.193 45.506 284.193 46.262C284.193 46.9993 284.021 47.6573 283.675 48.236C283.339 48.8147 282.868 49.272 282.261 49.608C281.664 49.9347 280.978 50.098 280.203 50.098ZM280.203 48.6C280.633 48.6 281.015 48.5067 281.351 48.32C281.687 48.1333 281.949 47.8627 282.135 47.508C282.331 47.1533 282.429 46.738 282.429 46.262C282.429 45.7767 282.331 45.3613 282.135 45.016C281.949 44.6613 281.687 44.3907 281.351 44.204C281.015 44.0173 280.637 43.924 280.217 43.924C279.788 43.924 279.405 44.0173 279.069 44.204C278.743 44.3907 278.481 44.6613 278.285 45.016C278.089 45.3613 277.991 45.7767 277.991 46.262C277.991 46.738 278.089 47.1533 278.285 47.508C278.481 47.8627 278.743 48.1333 279.069 48.32C279.405 48.5067 279.783 48.6 280.203 48.6ZM285.097 52.814C284.77 52.814 284.462 52.7767 284.173 52.702C283.874 52.6367 283.622 52.5293 283.417 52.38L283.921 51.078C284.191 51.274 284.532 51.372 284.943 51.372C285.26 51.372 285.507 51.2693 285.685 51.064C285.862 50.868 285.951 50.574 285.951 50.182V42.524H287.701V50.14C287.701 50.9613 287.472 51.61 287.015 52.086C286.567 52.5713 285.927 52.814 285.097 52.814ZM286.819 41.292C286.492 41.292 286.221 41.1893 286.007 40.984C285.801 40.7787 285.699 40.5313 285.699 40.242C285.699 39.9433 285.801 39.696 286.007 39.5C286.221 39.2947 286.492 39.192 286.819 39.192C287.145 39.192 287.411 39.29 287.617 39.486C287.831 39.6727 287.939 39.9107 287.939 40.2C287.939 40.508 287.836 40.7693 287.631 40.984C287.425 41.1893 287.155 41.292 286.819 41.292ZM293.51 50.098C292.679 50.098 291.951 49.9347 291.326 49.608C290.71 49.272 290.229 48.8147 289.884 48.236C289.548 47.6573 289.38 46.9993 289.38 46.262C289.38 45.5153 289.543 44.8573 289.87 44.288C290.206 43.7093 290.663 43.2567 291.242 42.93C291.83 42.6033 292.497 42.44 293.244 42.44C293.972 42.44 294.62 42.5987 295.19 42.916C295.759 43.2333 296.207 43.6813 296.534 44.26C296.86 44.8387 297.024 45.52 297.024 46.304C297.024 46.3787 297.019 46.4627 297.01 46.556C297.01 46.6493 297.005 46.738 296.996 46.822H290.766V45.66H296.072L295.386 46.024C295.395 45.5947 295.306 45.2167 295.12 44.89C294.933 44.5633 294.676 44.3067 294.35 44.12C294.032 43.9333 293.664 43.84 293.244 43.84C292.814 43.84 292.436 43.9333 292.11 44.12C291.792 44.3067 291.54 44.568 291.354 44.904C291.176 45.2307 291.088 45.618 291.088 46.066V46.346C291.088 46.794 291.19 47.1907 291.396 47.536C291.601 47.8813 291.89 48.1473 292.264 48.334C292.637 48.5207 293.066 48.614 293.552 48.614C293.972 48.614 294.35 48.5487 294.686 48.418C295.022 48.2873 295.32 48.082 295.582 47.802L296.52 48.88C296.184 49.272 295.759 49.5753 295.246 49.79C294.742 49.9953 294.163 50.098 293.51 50.098ZM302.135 50.098C301.351 50.098 300.651 49.9347 300.035 49.608C299.428 49.272 298.952 48.8147 298.607 48.236C298.261 47.6573 298.089 46.9993 298.089 46.262C298.089 45.5153 298.261 44.8573 298.607 44.288C298.952 43.7093 299.428 43.2567 300.035 42.93C300.651 42.6033 301.351 42.44 302.135 42.44C302.863 42.44 303.502 42.5893 304.053 42.888C304.613 43.1773 305.037 43.6067 305.327 44.176L303.983 44.96C303.759 44.6053 303.483 44.344 303.157 44.176C302.839 44.008 302.494 43.924 302.121 43.924C301.691 43.924 301.304 44.0173 300.959 44.204C300.613 44.3907 300.343 44.6613 300.147 45.016C299.951 45.3613 299.853 45.7767 299.853 46.262C299.853 46.7473 299.951 47.1673 300.147 47.522C300.343 47.8673 300.613 48.1333 300.959 48.32C301.304 48.5067 301.691 48.6 302.121 48.6C302.494 48.6 302.839 48.516 303.157 48.348C303.483 48.18 303.759 47.9187 303.983 47.564L305.327 48.348C305.037 48.908 304.613 49.342 304.053 49.65C303.502 49.9487 302.863 50.098 302.135 50.098ZM309.749 50.098C308.928 50.098 308.293 49.888 307.845 49.468C307.397 49.0387 307.173 48.4087 307.173 47.578V40.872H308.923V47.536C308.923 47.8907 309.012 48.166 309.189 48.362C309.376 48.558 309.632 48.656 309.959 48.656C310.351 48.656 310.678 48.5533 310.939 48.348L311.429 49.594C311.224 49.762 310.972 49.888 310.673 49.972C310.374 50.056 310.066 50.098 309.749 50.098ZM305.941 43.98V42.58H310.925V43.98H305.941ZM315.179 50.098C314.553 50.098 313.951 50.0187 313.373 49.86C312.803 49.692 312.351 49.4913 312.015 49.258L312.687 47.928C313.023 48.1427 313.424 48.32 313.891 48.46C314.357 48.6 314.824 48.67 315.291 48.67C315.841 48.67 316.238 48.5953 316.481 48.446C316.733 48.2967 316.859 48.096 316.859 47.844C316.859 47.6387 316.775 47.4847 316.607 47.382C316.439 47.27 316.219 47.186 315.949 47.13C315.678 47.074 315.375 47.0227 315.039 46.976C314.712 46.9293 314.381 46.8687 314.045 46.794C313.718 46.71 313.419 46.5933 313.149 46.444C312.878 46.2853 312.659 46.0753 312.491 45.814C312.323 45.5527 312.239 45.2073 312.239 44.778C312.239 44.302 312.374 43.8913 312.645 43.546C312.915 43.1913 313.293 42.9207 313.779 42.734C314.273 42.538 314.857 42.44 315.529 42.44C316.033 42.44 316.541 42.496 317.055 42.608C317.568 42.72 317.993 42.8787 318.329 43.084L317.657 44.414C317.302 44.1993 316.943 44.0547 316.579 43.98C316.224 43.896 315.869 43.854 315.515 43.854C314.983 43.854 314.586 43.9333 314.325 44.092C314.073 44.2507 313.947 44.4513 313.947 44.694C313.947 44.918 314.031 45.086 314.199 45.198C314.367 45.31 314.586 45.3987 314.857 45.464C315.127 45.5293 315.426 45.5853 315.753 45.632C316.089 45.6693 316.42 45.73 316.747 45.814C317.073 45.898 317.372 46.0147 317.643 46.164C317.923 46.304 318.147 46.5047 318.315 46.766C318.483 47.0273 318.567 47.368 318.567 47.788C318.567 48.2547 318.427 48.6607 318.147 49.006C317.876 49.3513 317.489 49.622 316.985 49.818C316.481 50.0047 315.879 50.098 315.179 50.098ZM326.757 50.098C325.936 50.098 325.301 49.888 324.853 49.468C324.405 49.0387 324.181 48.4087 324.181 47.578V40.872H325.931V47.536C325.931 47.8907 326.02 48.166 326.197 48.362C326.384 48.558 326.64 48.656 326.967 48.656C327.359 48.656 327.686 48.5533 327.947 48.348L328.437 49.594C328.232 49.762 327.98 49.888 327.681 49.972C327.382 50.056 327.074 50.098 326.757 50.098ZM322.949 43.98V42.58H327.933V43.98H322.949ZM332.99 50.098C332.225 50.098 331.544 49.9347 330.946 49.608C330.349 49.272 329.878 48.8147 329.532 48.236C329.187 47.6573 329.014 46.9993 329.014 46.262C329.014 45.5153 329.187 44.8573 329.532 44.288C329.878 43.7093 330.349 43.2567 330.946 42.93C331.544 42.6033 332.225 42.44 332.99 42.44C333.765 42.44 334.451 42.6033 335.048 42.93C335.655 43.2567 336.126 43.7047 336.462 44.274C336.808 44.8433 336.98 45.506 336.98 46.262C336.98 46.9993 336.808 47.6573 336.462 48.236C336.126 48.8147 335.655 49.272 335.048 49.608C334.451 49.9347 333.765 50.098 332.99 50.098ZM332.99 48.6C333.42 48.6 333.802 48.5067 334.138 48.32C334.474 48.1333 334.736 47.8627 334.922 47.508C335.118 47.1533 335.216 46.738 335.216 46.262C335.216 45.7767 335.118 45.3613 334.922 45.016C334.736 44.6613 334.474 44.3907 334.138 44.204C333.802 44.0173 333.424 43.924 333.004 43.924C332.575 43.924 332.192 44.0173 331.856 44.204C331.53 44.3907 331.268 44.6613 331.072 45.016C330.876 45.3613 330.778 45.7767 330.778 46.262C330.778 46.738 330.876 47.1533 331.072 47.508C331.268 47.8627 331.53 48.1333 331.856 48.32C332.192 48.5067 332.57 48.6 332.99 48.6ZM341.468 50.098C340.647 50.098 340.012 49.888 339.564 49.468C339.116 49.0387 338.892 48.4087 338.892 47.578V40.872H340.642V47.536C340.642 47.8907 340.731 48.166 340.908 48.362C341.095 48.558 341.351 48.656 341.678 48.656C342.07 48.656 342.397 48.5533 342.658 48.348L343.148 49.594C342.943 49.762 342.691 49.888 342.392 49.972C342.093 50.056 341.785 50.098 341.468 50.098ZM337.66 43.98V42.58H342.644V43.98H337.66ZM349.193 50V48.488L349.095 48.166V45.52C349.095 45.0067 348.941 44.61 348.633 44.33C348.325 44.0407 347.859 43.896 347.233 43.896C346.813 43.896 346.398 43.9613 345.987 44.092C345.586 44.2227 345.245 44.4047 344.965 44.638L344.279 43.364C344.681 43.056 345.157 42.8273 345.707 42.678C346.267 42.5193 346.846 42.44 347.443 42.44C348.526 42.44 349.361 42.7013 349.949 43.224C350.547 43.7373 350.845 44.5353 350.845 45.618V50H349.193ZM346.841 50.098C346.281 50.098 345.791 50.0047 345.371 49.818C344.951 49.622 344.625 49.356 344.391 49.02C344.167 48.6747 344.055 48.2873 344.055 47.858C344.055 47.438 344.153 47.06 344.349 46.724C344.555 46.388 344.886 46.122 345.343 45.926C345.801 45.73 346.407 45.632 347.163 45.632H349.333V46.794H347.289C346.692 46.794 346.291 46.892 346.085 47.088C345.88 47.2747 345.777 47.508 345.777 47.788C345.777 48.1053 345.903 48.3573 346.155 48.544C346.407 48.7307 346.757 48.824 347.205 48.824C347.635 48.824 348.017 48.726 348.353 48.53C348.699 48.334 348.946 48.0447 349.095 47.662L349.389 48.712C349.221 49.1507 348.918 49.4913 348.479 49.734C348.05 49.9767 347.504 50.098 346.841 50.098ZM353.091 50V39.612H354.841V50H353.091Z" fill="#3A3C40"/>
</svg>
