<svg width="75" height="71" viewBox="0 0 75 71" fill="none" xmlns="http://www.w3.org/2000/svg">
<rect x="0.5" y="0.5" width="74" height="70" rx="7.5" fill="#F1F4FE"/>
<path d="M35.6334 27.8667H29.1001C28.9775 27.8668 28.8561 27.8427 28.7429 27.7958C28.6296 27.7489 28.5267 27.6801 28.44 27.5935C28.3534 27.5068 28.2846 27.4039 28.2377 27.2906C28.1908 27.1774 28.1667 27.056 28.1667 26.9334V17.6001C28.1667 17.4775 28.1908 17.3561 28.2377 17.2429C28.2846 17.1296 28.3534 17.0267 28.44 16.94C28.5267 16.8534 28.6296 16.7846 28.7429 16.7377C28.8561 16.6908 28.9775 16.6667 29.1001 16.6667H35.6334C35.756 16.6667 35.8774 16.6908 35.9906 16.7377C36.1039 16.7846 36.2068 16.8534 36.2935 16.94C36.3801 17.0267 36.4489 17.1296 36.4958 17.2429C36.5427 17.3561 36.5668 17.4775 36.5667 17.6001V26.9334C36.5668 27.056 36.5427 27.1774 36.4958 27.2906C36.4489 27.4039 36.3801 27.5068 36.2935 27.5935C36.2068 27.6801 36.1039 27.7489 35.9906 27.7958C35.8774 27.8427 35.756 27.8668 35.6334 27.8667Z" fill="#2940D3"/>
<path d="M35.6334 35.3334H29.1001C28.9775 35.3334 28.8561 35.3093 28.7429 35.2624C28.6296 35.2155 28.5267 35.1468 28.44 35.0601C28.3534 34.9734 28.2846 34.8705 28.2377 34.7573C28.1908 34.644 28.1667 34.5226 28.1667 34.4001V30.6667C28.1667 30.5442 28.1908 30.4228 28.2377 30.3095C28.2846 30.1963 28.3534 30.0934 28.44 30.0067C28.5267 29.92 28.6296 29.8513 28.7429 29.8044C28.8561 29.7575 28.9775 29.7334 29.1001 29.7334H35.6334C35.756 29.7334 35.8774 29.7575 35.9906 29.8044C36.1039 29.8513 36.2068 29.92 36.2935 30.0067C36.3801 30.0934 36.4489 30.1963 36.4958 30.3095C36.5427 30.4228 36.5668 30.5442 36.5667 30.6667V34.4001C36.5668 34.5226 36.5427 34.644 36.4958 34.7573C36.4489 34.8705 36.3801 34.9734 36.2935 35.0601C36.2068 35.1468 36.1039 35.2155 35.9906 35.2624C35.8774 35.3093 35.756 35.3334 35.6334 35.3334Z" fill="#2940D3"/>
<path d="M45.9 35.3333H39.3667C39.2441 35.3334 39.1227 35.3092 39.0095 35.2624C38.8962 35.2155 38.7933 35.1467 38.7066 35.06C38.62 34.9734 38.5512 34.8705 38.5043 34.7572C38.4574 34.644 38.4333 34.5226 38.4333 34.4V26.9333C38.4333 26.8108 38.4574 26.6894 38.5043 26.5761C38.5512 26.4629 38.62 26.36 38.7066 26.2733C38.7933 26.1866 38.8962 26.1179 39.0095 26.071C39.1227 26.0241 39.2441 26 39.3667 26H45.9C46.0226 26 46.144 26.0241 46.2572 26.071C46.3705 26.1179 46.4734 26.1866 46.5601 26.2733C46.6467 26.36 46.7155 26.4629 46.7624 26.5761C46.8093 26.6894 46.8334 26.8108 46.8333 26.9333V34.4C46.8334 34.5226 46.8093 34.644 46.7624 34.7572C46.7155 34.8705 46.6467 34.9734 46.5601 35.06C46.4734 35.1467 46.3705 35.2155 46.2572 35.2624C46.144 35.3092 46.0226 35.3334 45.9 35.3333Z" fill="#A9B8FA"/>
<path d="M45.9 24.1334H39.3667C39.2441 24.1334 39.1227 24.1093 39.0095 24.0624C38.8962 24.0155 38.7933 23.9468 38.7066 23.8601C38.62 23.7734 38.5512 23.6705 38.5043 23.5573C38.4574 23.444 38.4333 23.3227 38.4333 23.2001V17.6001C38.4333 17.4775 38.4574 17.3561 38.5043 17.2429C38.5512 17.1296 38.62 17.0267 38.7066 16.94C38.7933 16.8534 38.8962 16.7846 39.0095 16.7377C39.1227 16.6908 39.2441 16.6667 39.3667 16.6667H45.9C46.0226 16.6667 46.144 16.6908 46.2572 16.7377C46.3705 16.7846 46.4734 16.8534 46.5601 16.94C46.6467 17.0267 46.7155 17.1296 46.7624 17.2429C46.8093 17.3561 46.8334 17.4775 46.8334 17.6001V23.2001C46.8334 23.3227 46.8093 23.444 46.7624 23.5573C46.7155 23.6705 46.6467 23.7734 46.5601 23.8601C46.4734 23.9468 46.3705 24.0155 46.2572 24.0624C46.144 24.1093 46.0226 24.1334 45.9 24.1334Z" fill="#A9B8FA"/>
<path d="M13.3741 52V43.6H16.8301C17.5741 43.6 18.2101 43.72 18.7381 43.96C19.2741 44.2 19.6861 44.544 19.9741 44.992C20.2621 45.44 20.4061 45.972 20.4061 46.588C20.4061 47.204 20.2621 47.736 19.9741 48.184C19.6861 48.632 19.2741 48.976 18.7381 49.216C18.2101 49.456 17.5741 49.576 16.8301 49.576H14.2381L14.9341 48.844V52H13.3741ZM14.9341 49.012L14.2381 48.256H16.7581C17.4461 48.256 17.9621 48.112 18.3061 47.824C18.6581 47.528 18.8341 47.116 18.8341 46.588C18.8341 46.052 18.6581 45.64 18.3061 45.352C17.9621 45.064 17.4461 44.92 16.7581 44.92H14.2381L14.9341 44.152V49.012ZM21.7613 52V45.592H23.1893V47.356L23.0213 46.84C23.2133 46.408 23.5133 46.08 23.9213 45.856C24.3373 45.632 24.8533 45.52 25.4693 45.52V46.948C25.4053 46.932 25.3453 46.924 25.2893 46.924C25.2333 46.916 25.1773 46.912 25.1213 46.912C24.5533 46.912 24.1013 47.08 23.7653 47.416C23.4293 47.744 23.2613 48.236 23.2613 48.892V52H21.7613ZM29.5632 52.084C28.9072 52.084 28.3232 51.944 27.8112 51.664C27.2992 51.376 26.8952 50.984 26.5992 50.488C26.3032 49.992 26.1552 49.428 26.1552 48.796C26.1552 48.156 26.3032 47.592 26.5992 47.104C26.8952 46.608 27.2992 46.22 27.8112 45.94C28.3232 45.66 28.9072 45.52 29.5632 45.52C30.2272 45.52 30.8152 45.66 31.3272 45.94C31.8472 46.22 32.2512 46.604 32.5392 47.092C32.8352 47.58 32.9832 48.148 32.9832 48.796C32.9832 49.428 32.8352 49.992 32.5392 50.488C32.2512 50.984 31.8472 51.376 31.3272 51.664C30.8152 51.944 30.2272 52.084 29.5632 52.084ZM29.5632 50.8C29.9312 50.8 30.2592 50.72 30.5472 50.56C30.8352 50.4 31.0592 50.168 31.2192 49.864C31.3872 49.56 31.4712 49.204 31.4712 48.796C31.4712 48.38 31.3872 48.024 31.2192 47.728C31.0592 47.424 30.8352 47.192 30.5472 47.032C30.2592 46.872 29.9352 46.792 29.5752 46.792C29.2072 46.792 28.8792 46.872 28.5912 47.032C28.3112 47.192 28.0872 47.424 27.9192 47.728C27.7512 48.024 27.6672 48.38 27.6672 48.796C27.6672 49.204 27.7512 49.56 27.9192 49.864C28.0872 50.168 28.3112 50.4 28.5912 50.56C28.8792 50.72 29.2032 50.8 29.5632 50.8ZM33.7576 54.412C33.4776 54.412 33.2136 54.38 32.9656 54.316C32.7096 54.26 32.4936 54.168 32.3176 54.04L32.7496 52.924C32.9816 53.092 33.2736 53.176 33.6256 53.176C33.8976 53.176 34.1096 53.088 34.2616 52.912C34.4136 52.744 34.4896 52.492 34.4896 52.156V45.592H35.9896V52.12C35.9896 52.824 35.7936 53.38 35.4016 53.788C35.0176 54.204 34.4696 54.412 33.7576 54.412ZM35.2336 44.536C34.9536 44.536 34.7216 44.448 34.5376 44.272C34.3616 44.096 34.2736 43.884 34.2736 43.636C34.2736 43.38 34.3616 43.168 34.5376 43C34.7216 42.824 34.9536 42.736 35.2336 42.736C35.5136 42.736 35.7416 42.82 35.9176 42.988C36.1016 43.148 36.1936 43.352 36.1936 43.6C36.1936 43.864 36.1056 44.088 35.9296 44.272C35.7536 44.448 35.5216 44.536 35.2336 44.536ZM40.9687 52.084C40.2567 52.084 39.6327 51.944 39.0967 51.664C38.5687 51.376 38.1567 50.984 37.8607 50.488C37.5727 49.992 37.4287 49.428 37.4287 48.796C37.4287 48.156 37.5687 47.592 37.8487 47.104C38.1367 46.608 38.5287 46.22 39.0247 45.94C39.5287 45.66 40.1007 45.52 40.7407 45.52C41.3647 45.52 41.9207 45.656 42.4087 45.928C42.8967 46.2 43.2807 46.584 43.5607 47.08C43.8407 47.576 43.9807 48.16 43.9807 48.832C43.9807 48.896 43.9767 48.968 43.9687 49.048C43.9687 49.128 43.9647 49.204 43.9567 49.276H38.6167V48.28H43.1647L42.5767 48.592C42.5847 48.224 42.5087 47.9 42.3487 47.62C42.1887 47.34 41.9687 47.12 41.6887 46.96C41.4167 46.8 41.1007 46.72 40.7407 46.72C40.3727 46.72 40.0487 46.8 39.7687 46.96C39.4967 47.12 39.2807 47.344 39.1207 47.632C38.9687 47.912 38.8927 48.244 38.8927 48.628V48.868C38.8927 49.252 38.9807 49.592 39.1567 49.888C39.3327 50.184 39.5807 50.412 39.9007 50.572C40.2207 50.732 40.5887 50.812 41.0047 50.812C41.3647 50.812 41.6887 50.756 41.9767 50.644C42.2647 50.532 42.5207 50.356 42.7447 50.116L43.5487 51.04C43.2607 51.376 42.8967 51.636 42.4567 51.82C42.0247 51.996 41.5287 52.084 40.9687 52.084ZM48.3615 52.084C47.6895 52.084 47.0895 51.944 46.5615 51.664C46.0415 51.376 45.6335 50.984 45.3375 50.488C45.0415 49.992 44.8935 49.428 44.8935 48.796C44.8935 48.156 45.0415 47.592 45.3375 47.104C45.6335 46.608 46.0415 46.22 46.5615 45.94C47.0895 45.66 47.6895 45.52 48.3615 45.52C48.9855 45.52 49.5335 45.648 50.0055 45.904C50.4855 46.152 50.8495 46.52 51.0975 47.008L49.9455 47.68C49.7535 47.376 49.5175 47.152 49.2375 47.008C48.9655 46.864 48.6695 46.792 48.3495 46.792C47.9815 46.792 47.6495 46.872 47.3535 47.032C47.0575 47.192 46.8255 47.424 46.6575 47.728C46.4895 48.024 46.4055 48.38 46.4055 48.796C46.4055 49.212 46.4895 49.572 46.6575 49.876C46.8255 50.172 47.0575 50.4 47.3535 50.56C47.6495 50.72 47.9815 50.8 48.3495 50.8C48.6695 50.8 48.9655 50.728 49.2375 50.584C49.5175 50.44 49.7535 50.216 49.9455 49.912L51.0975 50.584C50.8495 51.064 50.4855 51.436 50.0055 51.7C49.5335 51.956 48.9855 52.084 48.3615 52.084ZM54.8882 52.084C54.1842 52.084 53.6402 51.904 53.2562 51.544C52.8722 51.176 52.6802 50.636 52.6802 49.924V44.176H54.1802V49.888C54.1802 50.192 54.2562 50.428 54.4082 50.596C54.5682 50.764 54.7882 50.848 55.0682 50.848C55.4042 50.848 55.6842 50.76 55.9082 50.584L56.3282 51.652C56.1522 51.796 55.9362 51.904 55.6802 51.976C55.4242 52.048 55.1602 52.084 54.8882 52.084ZM51.6242 46.84V45.64H55.8962V46.84H51.6242ZM59.5421 52.084C59.0061 52.084 58.4901 52.016 57.9941 51.88C57.5061 51.736 57.1181 51.564 56.8301 51.364L57.4061 50.224C57.6941 50.408 58.0381 50.56 58.4381 50.68C58.8381 50.8 59.2381 50.86 59.6381 50.86C60.1101 50.86 60.4501 50.796 60.6581 50.668C60.8741 50.54 60.9821 50.368 60.9821 50.152C60.9821 49.976 60.9101 49.844 60.7661 49.756C60.6221 49.66 60.4341 49.588 60.2021 49.54C59.9701 49.492 59.7101 49.448 59.4221 49.408C59.1421 49.368 58.8581 49.316 58.5701 49.252C58.2901 49.18 58.0341 49.08 57.8021 48.952C57.5701 48.816 57.3821 48.636 57.2381 48.412C57.0941 48.188 57.0221 47.892 57.0221 47.524C57.0221 47.116 57.1381 46.764 57.3701 46.468C57.6021 46.164 57.9261 45.932 58.3421 45.772C58.7661 45.604 59.2661 45.52 59.8421 45.52C60.2741 45.52 60.7101 45.568 61.1501 45.664C61.5901 45.76 61.9541 45.896 62.2421 46.072L61.6661 47.212C61.3621 47.028 61.0541 46.904 60.7421 46.84C60.4381 46.768 60.1341 46.732 59.8301 46.732C59.3741 46.732 59.0341 46.8 58.8101 46.936C58.5941 47.072 58.4861 47.244 58.4861 47.452C58.4861 47.644 58.5581 47.788 58.7021 47.884C58.8461 47.98 59.0341 48.056 59.2661 48.112C59.4981 48.168 59.7541 48.216 60.0341 48.256C60.3221 48.288 60.6061 48.34 60.8861 48.412C61.1661 48.484 61.4221 48.584 61.6541 48.712C61.8941 48.832 62.0861 49.004 62.2301 49.228C62.3741 49.452 62.4461 49.744 62.4461 50.104C62.4461 50.504 62.3261 50.852 62.0861 51.148C61.8541 51.444 61.5221 51.676 61.0901 51.844C60.6581 52.004 60.1421 52.084 59.5421 52.084Z" fill="#2940D3"/>
<rect x="0.5" y="0.5" width="74" height="70" rx="7.5" stroke="#7C90F1"/>
</svg>
