<svg width="217" height="86" viewBox="0 0 217 86" fill="none" xmlns="http://www.w3.org/2000/svg">
<g filter="url(#filter0_d_6_5278)">
<path d="M23 23.5C23 21.2909 24.7909 19.5 27 19.5H190C192.209 19.5 194 21.2909 194 23.5V54.5C194 56.7091 192.209 58.5 190 58.5H27C24.7909 58.5 23 56.7091 23 54.5V23.5Z" fill="#2940D3"/>
<path d="M50.8221 44V34.9H54.5661C55.3721 34.9 56.0611 35.03 56.6331 35.29C57.2138 35.55 57.6601 35.9227 57.9721 36.408C58.2841 36.8933 58.4401 37.4697 58.4401 38.137C58.4401 38.8043 58.2841 39.3807 57.9721 39.866C57.6601 40.3513 57.2138 40.724 56.6331 40.984C56.0611 41.244 55.3721 41.374 54.5661 41.374H51.7581L52.5121 40.581V44H50.8221ZM52.5121 40.763L51.7581 39.944H54.4881C55.2334 39.944 55.7924 39.788 56.1651 39.476C56.5464 39.1553 56.7371 38.709 56.7371 38.137C56.7371 37.5563 56.5464 37.11 56.1651 36.798C55.7924 36.486 55.2334 36.33 54.4881 36.33H51.7581L52.5121 35.498V40.763ZM59.9083 44V37.058H61.4553V38.969L61.2733 38.41C61.4813 37.942 61.8063 37.5867 62.2483 37.344C62.699 37.1013 63.258 36.98 63.9253 36.98V38.527C63.856 38.5097 63.791 38.501 63.7303 38.501C63.6696 38.4923 63.609 38.488 63.5483 38.488C62.933 38.488 62.4433 38.67 62.0793 39.034C61.7153 39.3893 61.5333 39.9223 61.5333 40.633V44H59.9083ZM68.3603 44.091C67.6496 44.091 67.017 43.9393 66.4623 43.636C65.9076 43.324 65.47 42.8993 65.1493 42.362C64.8286 41.8247 64.6683 41.2137 64.6683 40.529C64.6683 39.8357 64.8286 39.2247 65.1493 38.696C65.47 38.1587 65.9076 37.7383 66.4623 37.435C67.017 37.1317 67.6496 36.98 68.3603 36.98C69.0797 36.98 69.7167 37.1317 70.2713 37.435C70.8347 37.7383 71.2723 38.1543 71.5843 38.683C71.905 39.2117 72.0653 39.827 72.0653 40.529C72.0653 41.2137 71.905 41.8247 71.5843 42.362C71.2723 42.8993 70.8347 43.324 70.2713 43.636C69.7167 43.9393 69.0797 44.091 68.3603 44.091ZM68.3603 42.7C68.759 42.7 69.1143 42.6133 69.4263 42.44C69.7383 42.2667 69.981 42.0153 70.1543 41.686C70.3363 41.3567 70.4273 40.971 70.4273 40.529C70.4273 40.0783 70.3363 39.6927 70.1543 39.372C69.981 39.0427 69.7383 38.7913 69.4263 38.618C69.1143 38.4447 68.7633 38.358 68.3733 38.358C67.9746 38.358 67.6193 38.4447 67.3073 38.618C67.004 38.7913 66.7613 39.0427 66.5793 39.372C66.3973 39.6927 66.3063 40.0783 66.3063 40.529C66.3063 40.971 66.3973 41.3567 66.5793 41.686C66.7613 42.0153 67.004 42.2667 67.3073 42.44C67.6193 42.6133 67.9703 42.7 68.3603 42.7ZM77.4672 44.091C76.9039 44.091 76.3882 43.961 75.9202 43.701C75.4609 43.441 75.0926 43.051 74.8152 42.531C74.5466 42.0023 74.4122 41.335 74.4122 40.529C74.4122 39.7143 74.5422 39.047 74.8022 38.527C75.0709 38.007 75.4349 37.6213 75.8942 37.37C76.3536 37.11 76.8779 36.98 77.4672 36.98C78.1519 36.98 78.7542 37.1273 79.2742 37.422C79.8029 37.7167 80.2189 38.1283 80.5222 38.657C80.8342 39.1857 80.9902 39.8097 80.9902 40.529C80.9902 41.2483 80.8342 41.8767 80.5222 42.414C80.2189 42.9427 79.8029 43.3543 79.2742 43.649C78.7542 43.9437 78.1519 44.091 77.4672 44.091ZM73.6192 46.522V37.058H75.1662V38.696L75.1142 40.542L75.2442 42.388V46.522H73.6192ZM77.2852 42.7C77.6752 42.7 78.0219 42.6133 78.3252 42.44C78.6372 42.2667 78.8842 42.0153 79.0662 41.686C79.2482 41.3567 79.3392 40.971 79.3392 40.529C79.3392 40.0783 79.2482 39.6927 79.0662 39.372C78.8842 39.0427 78.6372 38.7913 78.3252 38.618C78.0219 38.4447 77.6752 38.358 77.2852 38.358C76.8952 38.358 76.5442 38.4447 76.2322 38.618C75.9202 38.7913 75.6732 39.0427 75.4912 39.372C75.3092 39.6927 75.2182 40.0783 75.2182 40.529C75.2182 40.971 75.3092 41.3567 75.4912 41.686C75.6732 42.0153 75.9202 42.2667 76.2322 42.44C76.5442 42.6133 76.8952 42.7 77.2852 42.7ZM85.6513 44.091C84.9407 44.091 84.308 43.9393 83.7533 43.636C83.1987 43.324 82.761 42.8993 82.4403 42.362C82.1197 41.8247 81.9593 41.2137 81.9593 40.529C81.9593 39.8357 82.1197 39.2247 82.4403 38.696C82.761 38.1587 83.1987 37.7383 83.7533 37.435C84.308 37.1317 84.9407 36.98 85.6513 36.98C86.3707 36.98 87.0077 37.1317 87.5623 37.435C88.1257 37.7383 88.5633 38.1543 88.8753 38.683C89.196 39.2117 89.3563 39.827 89.3563 40.529C89.3563 41.2137 89.196 41.8247 88.8753 42.362C88.5633 42.8993 88.1257 43.324 87.5623 43.636C87.0077 43.9393 86.3707 44.091 85.6513 44.091ZM85.6513 42.7C86.05 42.7 86.4053 42.6133 86.7173 42.44C87.0293 42.2667 87.272 42.0153 87.4453 41.686C87.6273 41.3567 87.7183 40.971 87.7183 40.529C87.7183 40.0783 87.6273 39.6927 87.4453 39.372C87.272 39.0427 87.0293 38.7913 86.7173 38.618C86.4053 38.4447 86.0543 38.358 85.6643 38.358C85.2657 38.358 84.9103 38.4447 84.5983 38.618C84.295 38.7913 84.0523 39.0427 83.8703 39.372C83.6883 39.6927 83.5973 40.0783 83.5973 40.529C83.5973 40.971 83.6883 41.3567 83.8703 41.686C84.0523 42.0153 84.295 42.2667 84.5983 42.44C84.9103 42.6133 85.2613 42.7 85.6513 42.7ZM93.0552 44.091C92.4746 44.091 91.9156 44.0173 91.3782 43.87C90.8496 43.714 90.4292 43.5277 90.1172 43.311L90.7412 42.076C91.0532 42.2753 91.4259 42.44 91.8592 42.57C92.2926 42.7 92.7259 42.765 93.1592 42.765C93.6706 42.765 94.0389 42.6957 94.2642 42.557C94.4982 42.4183 94.6152 42.232 94.6152 41.998C94.6152 41.8073 94.5372 41.6643 94.3812 41.569C94.2252 41.465 94.0216 41.387 93.7702 41.335C93.5189 41.283 93.2372 41.2353 92.9252 41.192C92.6219 41.1487 92.3142 41.0923 92.0022 41.023C91.6989 40.945 91.4216 40.8367 91.1702 40.698C90.9189 40.5507 90.7152 40.3557 90.5592 40.113C90.4032 39.8703 90.3252 39.5497 90.3252 39.151C90.3252 38.709 90.4509 38.3277 90.7022 38.007C90.9536 37.6777 91.3046 37.4263 91.7552 37.253C92.2146 37.071 92.7562 36.98 93.3802 36.98C93.8482 36.98 94.3206 37.032 94.7972 37.136C95.2739 37.24 95.6682 37.3873 95.9802 37.578L95.3562 38.813C95.0269 38.6137 94.6932 38.4793 94.3552 38.41C94.0259 38.332 93.6966 38.293 93.3672 38.293C92.8732 38.293 92.5049 38.3667 92.2622 38.514C92.0282 38.6613 91.9112 38.8477 91.9112 39.073C91.9112 39.281 91.9892 39.437 92.1452 39.541C92.3012 39.645 92.5049 39.7273 92.7562 39.788C93.0076 39.8487 93.2849 39.9007 93.5882 39.944C93.9002 39.9787 94.2079 40.035 94.5112 40.113C94.8146 40.191 95.0919 40.2993 95.3432 40.438C95.6032 40.568 95.8112 40.7543 95.9672 40.997C96.1232 41.2397 96.2012 41.556 96.2012 41.946C96.2012 42.3793 96.0712 42.7563 95.8112 43.077C95.5599 43.3977 95.2002 43.649 94.7322 43.831C94.2642 44.0043 93.7052 44.091 93.0552 44.091ZM100.864 44.091C100.092 44.091 99.4163 43.9393 98.8357 43.636C98.2637 43.324 97.8173 42.8993 97.4967 42.362C97.1847 41.8247 97.0287 41.2137 97.0287 40.529C97.0287 39.8357 97.1803 39.2247 97.4837 38.696C97.7957 38.1587 98.2203 37.7383 98.7577 37.435C99.3037 37.1317 99.9233 36.98 100.617 36.98C101.293 36.98 101.895 37.1273 102.424 37.422C102.952 37.7167 103.368 38.1327 103.672 38.67C103.975 39.2073 104.127 39.84 104.127 40.568C104.127 40.6373 104.122 40.7153 104.114 40.802C104.114 40.8887 104.109 40.971 104.101 41.049H98.3157V39.97H103.243L102.606 40.308C102.614 39.9093 102.532 39.5583 102.359 39.255C102.185 38.9517 101.947 38.7133 101.644 38.54C101.349 38.3667 101.007 38.28 100.617 38.28C100.218 38.28 99.867 38.3667 99.5637 38.54C99.269 38.7133 99.035 38.956 98.8617 39.268C98.697 39.5713 98.6147 39.931 98.6147 40.347V40.607C98.6147 41.023 98.71 41.3913 98.9007 41.712C99.0913 42.0327 99.36 42.2797 99.7067 42.453C100.053 42.6263 100.452 42.713 100.903 42.713C101.293 42.713 101.644 42.6523 101.956 42.531C102.268 42.4097 102.545 42.219 102.788 41.959L103.659 42.96C103.347 43.324 102.952 43.6057 102.476 43.805C102.008 43.9957 101.47 44.091 100.864 44.091ZM113.557 44V42.596L113.466 42.297V39.84C113.466 39.3633 113.323 38.995 113.037 38.735C112.751 38.4663 112.318 38.332 111.737 38.332C111.347 38.332 110.962 38.3927 110.58 38.514C110.208 38.6353 109.891 38.8043 109.631 39.021L108.994 37.838C109.367 37.552 109.809 37.3397 110.32 37.201C110.84 37.0537 111.378 36.98 111.932 36.98C112.938 36.98 113.713 37.2227 114.259 37.708C114.814 38.1847 115.091 38.9257 115.091 39.931V44H113.557ZM111.373 44.091C110.853 44.091 110.398 44.0043 110.008 43.831C109.618 43.649 109.315 43.402 109.098 43.09C108.89 42.7693 108.786 42.4097 108.786 42.011C108.786 41.621 108.877 41.27 109.059 40.958C109.25 40.646 109.558 40.399 109.982 40.217C110.407 40.035 110.97 39.944 111.672 39.944H113.687V41.023H111.789C111.235 41.023 110.862 41.114 110.671 41.296C110.481 41.4693 110.385 41.686 110.385 41.946C110.385 42.2407 110.502 42.4747 110.736 42.648C110.97 42.8213 111.295 42.908 111.711 42.908C112.11 42.908 112.465 42.817 112.777 42.635C113.098 42.453 113.328 42.1843 113.466 41.829L113.739 42.804C113.583 43.2113 113.302 43.5277 112.894 43.753C112.496 43.9783 111.989 44.091 111.373 44.091ZM124.618 44.091C124.054 44.091 123.539 43.961 123.071 43.701C122.611 43.441 122.243 43.051 121.966 42.531C121.697 42.0023 121.563 41.335 121.563 40.529C121.563 39.7143 121.693 39.047 121.953 38.527C122.221 38.007 122.585 37.6213 123.045 37.37C123.504 37.11 124.028 36.98 124.618 36.98C125.302 36.98 125.905 37.1273 126.425 37.422C126.953 37.7167 127.369 38.1283 127.673 38.657C127.985 39.1857 128.141 39.8097 128.141 40.529C128.141 41.2483 127.985 41.8767 127.673 42.414C127.369 42.9427 126.953 43.3543 126.425 43.649C125.905 43.9437 125.302 44.091 124.618 44.091ZM120.77 46.522V37.058H122.317V38.696L122.265 40.542L122.395 42.388V46.522H120.77ZM124.436 42.7C124.826 42.7 125.172 42.6133 125.476 42.44C125.788 42.2667 126.035 42.0153 126.217 41.686C126.399 41.3567 126.49 40.971 126.49 40.529C126.49 40.0783 126.399 39.6927 126.217 39.372C126.035 39.0427 125.788 38.7913 125.476 38.618C125.172 38.4447 124.826 38.358 124.436 38.358C124.046 38.358 123.695 38.4447 123.383 38.618C123.071 38.7913 122.824 39.0427 122.642 39.372C122.46 39.6927 122.369 40.0783 122.369 40.529C122.369 40.971 122.46 41.3567 122.642 41.686C122.824 42.0153 123.071 42.2667 123.383 42.44C123.695 42.6133 124.046 42.7 124.436 42.7ZM129.682 44V37.058H131.229V38.969L131.047 38.41C131.255 37.942 131.58 37.5867 132.022 37.344C132.472 37.1013 133.031 36.98 133.699 36.98V38.527C133.629 38.5097 133.564 38.501 133.504 38.501C133.443 38.4923 133.382 38.488 133.322 38.488C132.706 38.488 132.217 38.67 131.853 39.034C131.489 39.3893 131.307 39.9223 131.307 40.633V44H129.682ZM138.134 44.091C137.423 44.091 136.79 43.9393 136.236 43.636C135.681 43.324 135.243 42.8993 134.923 42.362C134.602 41.8247 134.442 41.2137 134.442 40.529C134.442 39.8357 134.602 39.2247 134.923 38.696C135.243 38.1587 135.681 37.7383 136.236 37.435C136.79 37.1317 137.423 36.98 138.134 36.98C138.853 36.98 139.49 37.1317 140.045 37.435C140.608 37.7383 141.046 38.1543 141.358 38.683C141.678 39.2117 141.839 39.827 141.839 40.529C141.839 41.2137 141.678 41.8247 141.358 42.362C141.046 42.8993 140.608 43.324 140.045 43.636C139.49 43.9393 138.853 44.091 138.134 44.091ZM138.134 42.7C138.532 42.7 138.888 42.6133 139.2 42.44C139.512 42.2667 139.754 42.0153 139.928 41.686C140.11 41.3567 140.201 40.971 140.201 40.529C140.201 40.0783 140.11 39.6927 139.928 39.372C139.754 39.0427 139.512 38.7913 139.2 38.618C138.888 38.4447 138.537 38.358 138.147 38.358C137.748 38.358 137.393 38.4447 137.081 38.618C136.777 38.7913 136.535 39.0427 136.353 39.372C136.171 39.6927 136.08 40.0783 136.08 40.529C136.08 40.971 136.171 41.3567 136.353 41.686C136.535 42.0153 136.777 42.2667 137.081 42.44C137.393 42.6133 137.744 42.7 138.134 42.7ZM142.678 46.613C142.374 46.613 142.088 46.5783 141.82 46.509C141.542 46.4483 141.308 46.3487 141.118 46.21L141.586 45.001C141.837 45.183 142.153 45.274 142.535 45.274C142.829 45.274 143.059 45.1787 143.224 44.988C143.388 44.806 143.471 44.533 143.471 44.169V37.058H145.096V44.13C145.096 44.8927 144.883 45.495 144.459 45.937C144.043 46.3877 143.449 46.613 142.678 46.613ZM144.277 35.914C143.973 35.914 143.722 35.8187 143.523 35.628C143.332 35.4373 143.237 35.2077 143.237 34.939C143.237 34.6617 143.332 34.432 143.523 34.25C143.722 34.0593 143.973 33.964 144.277 33.964C144.58 33.964 144.827 34.055 145.018 34.237C145.217 34.4103 145.317 34.6313 145.317 34.9C145.317 35.186 145.221 35.4287 145.031 35.628C144.84 35.8187 144.589 35.914 144.277 35.914ZM150.49 44.091C149.718 44.091 149.042 43.9393 148.462 43.636C147.89 43.324 147.443 42.8993 147.123 42.362C146.811 41.8247 146.655 41.2137 146.655 40.529C146.655 39.8357 146.806 39.2247 147.11 38.696C147.422 38.1587 147.846 37.7383 148.384 37.435C148.93 37.1317 149.549 36.98 150.243 36.98C150.919 36.98 151.521 37.1273 152.05 37.422C152.578 37.7167 152.994 38.1327 153.298 38.67C153.601 39.2073 153.753 39.84 153.753 40.568C153.753 40.6373 153.748 40.7153 153.74 40.802C153.74 40.8887 153.735 40.971 153.727 41.049H147.942V39.97H152.869L152.232 40.308C152.24 39.9093 152.158 39.5583 151.985 39.255C151.811 38.9517 151.573 38.7133 151.27 38.54C150.975 38.3667 150.633 38.28 150.243 38.28C149.844 38.28 149.493 38.3667 149.19 38.54C148.895 38.7133 148.661 38.956 148.488 39.268C148.323 39.5713 148.241 39.931 148.241 40.347V40.607C148.241 41.023 148.336 41.3913 148.527 41.712C148.717 42.0327 148.986 42.2797 149.333 42.453C149.679 42.6263 150.078 42.713 150.529 42.713C150.919 42.713 151.27 42.6523 151.582 42.531C151.894 42.4097 152.171 42.219 152.414 41.959L153.285 42.96C152.973 43.324 152.578 43.6057 152.102 43.805C151.634 43.9957 151.096 44.091 150.49 44.091ZM158.499 44.091C157.771 44.091 157.121 43.9393 156.549 43.636C155.985 43.324 155.543 42.8993 155.223 42.362C154.902 41.8247 154.742 41.2137 154.742 40.529C154.742 39.8357 154.902 39.2247 155.223 38.696C155.543 38.1587 155.985 37.7383 156.549 37.435C157.121 37.1317 157.771 36.98 158.499 36.98C159.175 36.98 159.768 37.1187 160.28 37.396C160.8 37.6647 161.194 38.0633 161.463 38.592L160.215 39.32C160.007 38.9907 159.751 38.748 159.448 38.592C159.153 38.436 158.832 38.358 158.486 38.358C158.087 38.358 157.727 38.4447 157.407 38.618C157.086 38.7913 156.835 39.0427 156.653 39.372C156.471 39.6927 156.38 40.0783 156.38 40.529C156.38 40.9797 156.471 41.3697 156.653 41.699C156.835 42.0197 157.086 42.2667 157.407 42.44C157.727 42.6133 158.087 42.7 158.486 42.7C158.832 42.7 159.153 42.622 159.448 42.466C159.751 42.31 160.007 42.0673 160.215 41.738L161.463 42.466C161.194 42.986 160.8 43.389 160.28 43.675C159.768 43.9523 159.175 44.091 158.499 44.091ZM165.569 44.091C164.806 44.091 164.217 43.896 163.801 43.506C163.385 43.1073 163.177 42.5223 163.177 41.751V35.524H164.802V41.712C164.802 42.0413 164.884 42.297 165.049 42.479C165.222 42.661 165.461 42.752 165.764 42.752C166.128 42.752 166.431 42.6567 166.674 42.466L167.129 43.623C166.938 43.779 166.704 43.896 166.427 43.974C166.15 44.052 165.864 44.091 165.569 44.091ZM162.033 38.41V37.11H166.661V38.41H162.033Z" fill="white"/>
</g>
<defs>
<filter id="filter0_d_6_5278" x="0" y="0.5" width="217" height="85" filterUnits="userSpaceOnUse" color-interpolation-filters="sRGB">
<feFlood flood-opacity="0" result="BackgroundImageFix"/>
<feColorMatrix in="SourceAlpha" type="matrix" values="0 0 0 0 0 0 0 0 0 0 0 0 0 0 0 0 0 0 127 0" result="hardAlpha"/>
<feOffset dy="4"/>
<feGaussianBlur stdDeviation="11.5"/>
<feColorMatrix type="matrix" values="0 0 0 0 0 0 0 0 0 0 0 0 0 0 0 0 0 0 0.12 0"/>
<feBlend mode="normal" in2="BackgroundImageFix" result="effect1_dropShadow_6_5278"/>
<feBlend mode="normal" in="SourceGraphic" in2="effect1_dropShadow_6_5278" result="shape"/>
</filter>
</defs>
</svg>
