<svg width="41" height="41" viewBox="0 0 41 41" fill="none" xmlns="http://www.w3.org/2000/svg">
<rect x="0.5" y="0.5" width="40" height="40" rx="4" fill="#FF9777"/>
<mask id="path-2-inside-1_13_2402" fill="white">
<path d="M25.0745 24.7622L23.1009 26.7358L22.2482 25.8895C22.1741 25.8155 22.0736 25.774 21.9689 25.774C21.8641 25.7741 21.7637 25.8158 21.6897 25.8899C21.6157 25.964 21.5741 26.0645 21.5742 26.1693C21.5743 26.274 21.616 26.3744 21.6901 26.4485L22.8182 27.5758C22.8923 27.6498 22.9926 27.6914 23.0973 27.6914C23.202 27.6914 23.3024 27.6498 23.3764 27.5758L25.635 25.3203C25.7069 25.2459 25.7467 25.1462 25.7458 25.0427C25.7449 24.9392 25.7034 24.8402 25.6302 24.767C25.557 24.6938 25.458 24.6523 25.3545 24.6514C25.251 24.6505 25.1513 24.6903 25.0769 24.7622H25.0745Z"/>
</mask>
<path d="M25.0745 24.7622L23.1009 26.7358L22.2482 25.8895C22.1741 25.8155 22.0736 25.774 21.9689 25.774C21.8641 25.7741 21.7637 25.8158 21.6897 25.8899C21.6157 25.964 21.5741 26.0645 21.5742 26.1693C21.5743 26.274 21.616 26.3744 21.6901 26.4485L22.8182 27.5758C22.8923 27.6498 22.9926 27.6914 23.0973 27.6914C23.202 27.6914 23.3024 27.6498 23.3764 27.5758L25.635 25.3203C25.7069 25.2459 25.7467 25.1462 25.7458 25.0427C25.7449 24.9392 25.7034 24.8402 25.6302 24.767C25.557 24.6938 25.458 24.6523 25.3545 24.6514C25.251 24.6505 25.1513 24.6903 25.0769 24.7622H25.0745Z" fill="white"/>
<path d="M25.0745 24.7622V23.7622H24.6603L24.3674 24.0551L25.0745 24.7622ZM23.1009 26.7358L22.3964 27.4456L23.1035 28.1474L23.808 27.4429L23.1009 26.7358ZM22.2482 25.8895L21.5416 26.5971L21.5438 26.5993L22.2482 25.8895ZM21.6901 26.4485L22.397 25.7411L22.3967 25.7409L21.6901 26.4485ZM22.8182 27.5758L23.5252 26.8686L23.5251 26.8685L22.8182 27.5758ZM23.3764 27.5758L22.6698 26.8682L22.6694 26.8686L23.3764 27.5758ZM25.635 25.3203L26.3416 26.0279L26.348 26.0215L26.3543 26.015L25.635 25.3203ZM25.0769 24.7622V25.7622H25.4809L25.7716 25.4815L25.0769 24.7622ZM24.3674 24.0551L22.3938 26.0287L23.808 27.4429L25.7816 25.4693L24.3674 24.0551ZM23.8053 26.0261L22.9527 25.1798L21.5438 26.5993L22.3964 27.4456L23.8053 26.0261ZM22.9548 25.1819C22.6931 24.9205 22.3382 24.7738 21.9682 24.774L21.9696 26.774C21.8091 26.7742 21.6552 26.7105 21.5416 26.5971L22.9548 25.1819ZM21.9682 24.774C21.5982 24.7743 21.2435 24.9215 20.9821 25.1833L22.3973 26.5965C22.2839 26.7101 22.1301 26.7739 21.9696 26.774L21.9682 24.774ZM20.9821 25.1833C20.7207 25.4451 20.574 25.8 20.5742 26.17L22.5742 26.1686C22.5743 26.329 22.5107 26.483 22.3973 26.5965L20.9821 25.1833ZM20.5742 26.17C20.5745 26.5399 20.7217 26.8946 20.9835 27.1561L22.3967 25.7409C22.5103 25.8542 22.5741 26.0081 22.5742 26.1686L20.5742 26.17ZM20.9832 27.1558L22.1114 28.2832L23.5251 26.8685L22.397 25.7411L20.9832 27.1558ZM22.1112 28.283C22.3728 28.5445 22.7275 28.6914 23.0973 28.6914V26.6914C23.2578 26.6914 23.4117 26.7551 23.5252 26.8686L22.1112 28.283ZM23.0973 28.6914C23.4671 28.6914 23.8218 28.5445 24.0834 28.283L22.6694 26.8686C22.7829 26.7551 22.9368 26.6914 23.0973 26.6914V28.6914ZM24.083 28.2834L26.3416 26.0279L24.9284 24.6127L22.6698 26.8682L24.083 28.2834ZM26.3543 26.015C26.6084 25.752 26.749 25.3997 26.7458 25.034L24.7459 25.0514C24.7445 24.8927 24.8055 24.7398 24.9157 24.6256L26.3543 26.015ZM26.7458 25.034C26.7426 24.6683 26.5959 24.3185 26.3373 24.0599L24.9231 25.4741C24.8109 25.3619 24.7472 25.2101 24.7459 25.0514L26.7458 25.034ZM26.3373 24.0599C26.0787 23.8013 25.7289 23.6546 25.3632 23.6514L25.3458 25.6513C25.1871 25.65 25.0353 25.5863 24.9231 25.4741L26.3373 24.0599ZM25.3632 23.6514C24.9975 23.6482 24.6452 23.7888 24.3822 24.0429L25.7716 25.4815C25.6574 25.5917 25.5045 25.6527 25.3458 25.6513L25.3632 23.6514ZM25.0769 23.7622H25.0745V25.7622H25.0769V23.7622Z" fill="white" mask="url(#path-2-inside-1_13_2402)"/>
<path d="M26.4245 22.8224V17.4848C26.4245 17.3801 26.3829 17.2797 26.3089 17.2057C26.2348 17.1317 26.1344 17.0901 26.0298 17.0901H23.2666V14.327C23.2666 13.3848 22.8924 12.4812 22.2261 11.8149C21.5599 11.1487 20.6563 10.7744 19.7141 10.7744C18.7719 10.7744 17.8683 11.1487 17.202 11.8149C16.5358 12.4812 16.1615 13.3848 16.1615 14.327V17.0901H13.3984C13.2937 17.0901 13.1933 17.1317 13.1193 17.2057C13.0452 17.2797 13.0037 17.3801 13.0037 17.4848V27.2899C13.0047 28.144 13.3445 28.9628 13.9485 29.5666C14.5525 30.1705 15.3714 30.5101 16.2254 30.5109H23.6614C24.5549 30.5102 25.4264 30.2339 26.157 29.7196C26.8877 29.2053 27.4419 28.4782 27.7441 27.6374C28.0462 26.7965 28.0817 25.883 27.8455 25.0212C27.6094 24.1595 27.1131 23.3917 26.4245 22.8224ZM16.951 14.327C16.951 13.5942 17.2421 12.8914 17.7603 12.3732C18.2784 11.855 18.9813 11.5639 19.7141 11.5639C20.4469 11.5639 21.1497 11.855 21.6679 12.3732C22.1861 12.8914 22.4772 13.5942 22.4772 14.327V17.0901H16.951V14.327ZM16.2254 29.7215C15.5807 29.7208 14.9625 29.4645 14.5065 29.0086C14.0505 28.5528 13.794 27.9347 13.7931 27.2899V17.8796H16.1615V18.7416C15.8981 18.8348 15.6762 19.018 15.5348 19.2589C15.3935 19.4999 15.3419 19.783 15.3891 20.0584C15.4363 20.3337 15.5794 20.5834 15.793 20.7635C16.0065 20.9435 16.2769 21.0423 16.5562 21.0423C16.8356 21.0423 17.1059 20.9435 17.3195 20.7635C17.5331 20.5834 17.6761 20.3337 17.7234 20.0584C17.7706 19.783 17.719 19.4999 17.5776 19.2589C17.4363 19.018 17.2143 18.8348 16.951 18.7416V17.8796H22.4772V18.7416C22.2138 18.8348 21.9918 19.018 21.8505 19.2589C21.7092 19.4999 21.6575 19.783 21.7048 20.0584C21.752 20.3337 21.8951 20.5834 22.1086 20.7635C22.3222 20.9435 22.5926 21.0423 22.8719 21.0423C23.1513 21.0423 23.4216 20.9435 23.6352 20.7635C23.8488 20.5834 23.9918 20.3337 24.039 20.0584C24.0863 19.783 24.0347 19.4999 23.8933 19.2589C23.752 19.018 23.53 18.8348 23.2666 18.7416V17.8796H25.635V22.3061C24.6568 21.805 23.5249 21.694 22.4679 21.9955C21.411 22.297 20.508 22.9884 19.9413 23.9302C19.3747 24.8719 19.1867 25.9936 19.4153 27.0687C19.6439 28.1437 20.2721 29.0918 21.173 29.7215H16.2254ZM16.5562 19.4585C16.6343 19.4585 16.7106 19.4816 16.7755 19.525C16.8404 19.5684 16.891 19.63 16.9209 19.7021C16.9508 19.7743 16.9586 19.8536 16.9434 19.9302C16.9281 20.0068 16.8906 20.0771 16.8353 20.1323C16.7801 20.1875 16.7098 20.2251 16.6332 20.2404C16.5567 20.2556 16.4773 20.2478 16.4052 20.2179C16.333 20.188 16.2714 20.1374 16.228 20.0725C16.1847 20.0076 16.1615 19.9313 16.1615 19.8532C16.1615 19.7485 16.2031 19.6481 16.2771 19.5741C16.3511 19.5001 16.4515 19.4585 16.5562 19.4585ZM22.8719 19.4585C22.95 19.4585 23.0263 19.4816 23.0912 19.525C23.1561 19.5684 23.2067 19.63 23.2366 19.7021C23.2665 19.7743 23.2743 19.8536 23.2591 19.9302C23.2438 20.0068 23.2062 20.0771 23.151 20.1323C23.0958 20.1875 23.0255 20.2251 22.9489 20.2404C22.8724 20.2556 22.793 20.2478 22.7209 20.2179C22.6487 20.188 22.5871 20.1374 22.5437 20.0725C22.5003 20.0076 22.4772 19.9313 22.4772 19.8532C22.4772 19.7485 22.5188 19.6481 22.5928 19.5741C22.6668 19.5001 22.7672 19.4585 22.8719 19.4585ZM23.6614 29.7215C22.9587 29.7215 22.2719 29.5131 21.6877 29.1227C21.1035 28.7324 20.6481 28.1775 20.3792 27.5284C20.1103 26.8792 20.04 26.1649 20.1771 25.4758C20.3141 24.7867 20.6525 24.1537 21.1493 23.6568C21.6462 23.16 22.2792 22.8217 22.9683 22.6846C23.6574 22.5475 24.3717 22.6179 25.0209 22.8867C25.67 23.1556 26.2249 23.611 26.6152 24.1952C27.0056 24.7794 27.2139 25.4663 27.2139 26.1689C27.2129 27.1108 26.8383 28.0138 26.1723 28.6798C25.5063 29.3458 24.6033 29.7204 23.6614 29.7215Z" fill="white"/>
</svg>
