<svg width="104" height="41" viewBox="0 0 104 41" fill="none" xmlns="http://www.w3.org/2000/svg">
<rect x="0.5" y="0.5" width="40" height="40" rx="4" fill="#FF9777"/>
<path d="M21.6901 26.4485L22.8182 27.5758C22.8923 27.6498 22.9926 27.6914 23.0973 27.6914C23.202 27.6914 23.3024 27.6498 23.3764 27.5758L25.635 25.3203C25.7069 25.2459 25.7467 25.1462 25.7458 25.0427C25.7449 24.9392 25.7034 24.8402 25.6302 24.767C25.557 24.6938 25.458 24.6523 25.3545 24.6514C25.251 24.6505 25.1513 24.6903 25.0769 24.7622L21.6901 26.4485ZM21.6901 26.4485C21.616 26.3744 21.5743 26.274 21.5742 26.1693C21.5741 26.0645 21.6157 25.964 21.6897 25.8899C21.7637 25.8158 21.8641 25.7741 21.9689 25.774C22.0736 25.774 22.1741 25.8155 22.2482 25.8895L21.6901 26.4485Z" fill="white" stroke="white"/>
<path d="M26.4245 22.8224V17.4848C26.4245 17.3801 26.3829 17.2797 26.3089 17.2057C26.2348 17.1317 26.1344 17.0901 26.0298 17.0901H23.2666V14.327C23.2666 13.3848 22.8924 12.4812 22.2261 11.8149C21.5599 11.1487 20.6563 10.7744 19.7141 10.7744C18.7719 10.7744 17.8683 11.1487 17.202 11.8149C16.5358 12.4812 16.1615 13.3848 16.1615 14.327V17.0901H13.3984C13.2937 17.0901 13.1933 17.1317 13.1193 17.2057C13.0452 17.2797 13.0037 17.3801 13.0037 17.4848V27.2899C13.0047 28.144 13.3445 28.9628 13.9485 29.5666C14.5525 30.1705 15.3714 30.5101 16.2254 30.5109H23.6614C24.5549 30.5102 25.4264 30.2339 26.157 29.7196C26.8877 29.2053 27.4419 28.4782 27.7441 27.6374C28.0462 26.7965 28.0817 25.883 27.8455 25.0212C27.6094 24.1595 27.1131 23.3917 26.4245 22.8224V22.8224ZM16.951 14.327C16.951 13.5942 17.2421 12.8914 17.7603 12.3732C18.2784 11.855 18.9813 11.5639 19.7141 11.5639C20.4469 11.5639 21.1497 11.855 21.6679 12.3732C22.1861 12.8914 22.4772 13.5942 22.4772 14.327V17.0901H16.951V14.327ZM16.2254 29.7215C15.5807 29.7208 14.9625 29.4645 14.5065 29.0086C14.0505 28.5528 13.794 27.9347 13.7931 27.2899V17.8796H16.1615V18.7416C15.8981 18.8348 15.6762 19.018 15.5348 19.2589C15.3935 19.4999 15.3419 19.783 15.3891 20.0584C15.4363 20.3337 15.5794 20.5834 15.793 20.7635C16.0065 20.9435 16.2769 21.0423 16.5562 21.0423C16.8356 21.0423 17.1059 20.9435 17.3195 20.7635C17.5331 20.5834 17.6761 20.3337 17.7234 20.0584C17.7706 19.783 17.719 19.4999 17.5776 19.2589C17.4363 19.018 17.2143 18.8348 16.951 18.7416V17.8796H22.4772V18.7416C22.2138 18.8348 21.9918 19.018 21.8505 19.2589C21.7092 19.4999 21.6575 19.783 21.7048 20.0584C21.752 20.3337 21.8951 20.5834 22.1086 20.7635C22.3222 20.9435 22.5926 21.0423 22.8719 21.0423C23.1513 21.0423 23.4216 20.9435 23.6352 20.7635C23.8488 20.5834 23.9918 20.3337 24.039 20.0584C24.0863 19.783 24.0347 19.4999 23.8933 19.2589C23.752 19.018 23.53 18.8348 23.2666 18.7416V17.8796H25.635V22.3061C24.6568 21.805 23.5249 21.694 22.4679 21.9955C21.411 22.297 20.508 22.9884 19.9413 23.9302C19.3747 24.8719 19.1867 25.9936 19.4153 27.0687C19.6439 28.1437 20.2721 29.0918 21.173 29.7215H16.2254ZM16.5562 19.4585C16.6343 19.4585 16.7106 19.4816 16.7755 19.525C16.8404 19.5684 16.891 19.63 16.9209 19.7021C16.9508 19.7743 16.9586 19.8536 16.9434 19.9302C16.9281 20.0068 16.8906 20.0771 16.8353 20.1323C16.7801 20.1875 16.7098 20.2251 16.6332 20.2404C16.5567 20.2556 16.4773 20.2478 16.4052 20.2179C16.333 20.188 16.2714 20.1374 16.228 20.0725C16.1847 20.0076 16.1615 19.9313 16.1615 19.8532C16.1615 19.7485 16.2031 19.6481 16.2771 19.5741C16.3511 19.5001 16.4515 19.4585 16.5562 19.4585ZM22.8719 19.4585C22.95 19.4585 23.0263 19.4816 23.0912 19.525C23.1561 19.5684 23.2067 19.63 23.2366 19.7021C23.2665 19.7743 23.2743 19.8536 23.2591 19.9302C23.2438 20.0068 23.2062 20.0771 23.151 20.1323C23.0958 20.1875 23.0255 20.2251 22.9489 20.2404C22.8724 20.2556 22.793 20.2478 22.7209 20.2179C22.6487 20.188 22.5871 20.1374 22.5437 20.0725C22.5003 20.0076 22.4772 19.9313 22.4772 19.8532C22.4772 19.7485 22.5188 19.6481 22.5928 19.5741C22.6668 19.5001 22.7672 19.4585 22.8719 19.4585ZM23.6614 29.7215C22.9587 29.7215 22.2719 29.5131 21.6877 29.1227C21.1035 28.7324 20.6481 28.1775 20.3792 27.5284C20.1103 26.8792 20.04 26.1649 20.1771 25.4758C20.3141 24.7867 20.6525 24.1537 21.1493 23.6568C21.6462 23.16 22.2792 22.8217 22.9683 22.6846C23.6574 22.5475 24.3717 22.6179 25.0209 22.8867C25.67 23.1556 26.2249 23.611 26.6152 24.1952C27.0056 24.7794 27.2139 25.4663 27.2139 26.1689C27.2129 27.1108 26.8383 28.0138 26.1723 28.6798C25.5063 29.3458 24.6033 29.7204 23.6614 29.7215V29.7215Z" fill="white"/>
<path opacity="0.5" d="M57.468 17.18C56.58 17.18 55.71 17.054 54.858 16.802C54.018 16.538 53.31 16.178 52.734 15.722L53.724 13.904C54.18 14.276 54.732 14.576 55.38 14.804C56.04 15.032 56.724 15.146 57.432 15.146C58.26 15.146 58.908 14.972 59.376 14.624C59.856 14.276 60.096 13.808 60.096 13.22C60.096 12.824 59.994 12.476 59.79 12.176C59.598 11.876 59.25 11.648 58.746 11.492C58.254 11.336 57.576 11.258 56.712 11.258H53.67L54.318 4.4H61.716V6.362H55.182L56.406 5.246L55.92 10.376L54.696 9.278H57.234C58.482 9.278 59.484 9.446 60.24 9.782C61.008 10.106 61.566 10.562 61.914 11.15C62.274 11.726 62.454 12.386 62.454 13.13C62.454 13.862 62.274 14.534 61.914 15.146C61.554 15.758 61.002 16.25 60.258 16.622C59.526 16.994 58.596 17.18 57.468 17.18Z" fill="#3A3C40"/>
<path d="M56.208 38.096C55.576 38.096 54.964 38 54.372 37.808C53.788 37.608 53.328 37.352 52.992 37.04L53.436 36.104C53.756 36.392 54.164 36.628 54.66 36.812C55.164 36.988 55.68 37.076 56.208 37.076C56.904 37.076 57.424 36.96 57.768 36.728C58.112 36.488 58.284 36.172 58.284 35.78C58.284 35.492 58.188 35.26 57.996 35.084C57.812 34.9 57.58 34.76 57.3 34.664C57.028 34.568 56.64 34.46 56.136 34.34C55.504 34.188 54.992 34.036 54.6 33.884C54.216 33.732 53.884 33.5 53.604 33.188C53.332 32.868 53.196 32.44 53.196 31.904C53.196 31.456 53.312 31.052 53.544 30.692C53.784 30.332 54.144 30.044 54.624 29.828C55.104 29.612 55.7 29.504 56.412 29.504C56.908 29.504 57.396 29.568 57.876 29.696C58.356 29.824 58.768 30.008 59.112 30.248L58.716 31.208C58.364 30.984 57.988 30.816 57.588 30.704C57.188 30.584 56.796 30.524 56.412 30.524C55.732 30.524 55.22 30.648 54.876 30.896C54.54 31.144 54.372 31.464 54.372 31.856C54.372 32.144 54.468 32.38 54.66 32.564C54.852 32.74 55.088 32.88 55.368 32.984C55.656 33.08 56.044 33.184 56.532 33.296C57.164 33.448 57.672 33.6 58.056 33.752C58.44 33.904 58.768 34.136 59.04 34.448C59.32 34.76 59.46 35.18 59.46 35.708C59.46 36.148 59.34 36.552 59.1 36.92C58.86 37.28 58.496 37.568 58.008 37.784C57.52 37.992 56.92 38.096 56.208 38.096ZM66.7931 34.856C66.7931 34.944 66.7851 35.06 66.7691 35.204H61.6091C61.6811 35.764 61.9251 36.216 62.3411 36.56C62.7651 36.896 63.2891 37.064 63.9131 37.064C64.6731 37.064 65.2851 36.808 65.7491 36.296L66.3851 37.04C66.0971 37.376 65.7371 37.632 65.3051 37.808C64.8811 37.984 64.4051 38.072 63.8771 38.072C63.2051 38.072 62.6091 37.936 62.0891 37.664C61.5691 37.384 61.1651 36.996 60.8771 36.5C60.5971 36.004 60.4571 35.444 60.4571 34.82C60.4571 34.204 60.5931 33.648 60.8651 33.152C61.1451 32.656 61.5251 32.272 62.0051 32C62.4931 31.72 63.0411 31.58 63.6491 31.58C64.2571 31.58 64.7971 31.72 65.2691 32C65.7491 32.272 66.1211 32.656 66.3851 33.152C66.6571 33.648 66.7931 34.216 66.7931 34.856ZM63.6491 32.552C63.0971 32.552 62.6331 32.72 62.2571 33.056C61.8891 33.392 61.6731 33.832 61.6091 34.376H65.6891C65.6251 33.84 65.4051 33.404 65.0291 33.068C64.6611 32.724 64.2011 32.552 63.6491 32.552ZM69.4968 32.708C69.6968 32.34 69.9928 32.06 70.3848 31.868C70.7768 31.676 71.2528 31.58 71.8128 31.58V32.696C71.7488 32.688 71.6608 32.684 71.5488 32.684C70.9248 32.684 70.4328 32.872 70.0728 33.248C69.7208 33.616 69.5448 34.144 69.5448 34.832V38H68.3928V31.64H69.4968V32.708ZM79.1184 31.64L76.3344 38H75.1584L72.3744 31.64H73.5744L75.7584 36.74L77.9904 31.64H79.1184ZM80.1936 31.64H81.3456V38H80.1936V31.64ZM80.7696 30.416C80.5456 30.416 80.3576 30.344 80.2056 30.2C80.0616 30.056 79.9896 29.88 79.9896 29.672C79.9896 29.464 80.0616 29.288 80.2056 29.144C80.3576 28.992 80.5456 28.916 80.7696 28.916C80.9936 28.916 81.1776 28.988 81.3216 29.132C81.4736 29.268 81.5496 29.44 81.5496 29.648C81.5496 29.864 81.4736 30.048 81.3216 30.2C81.1776 30.344 80.9936 30.416 80.7696 30.416ZM86.3171 38.072C85.6691 38.072 85.0891 37.932 84.5771 37.652C84.0731 37.372 83.6771 36.988 83.3891 36.5C83.1011 36.004 82.9571 35.444 82.9571 34.82C82.9571 34.196 83.1011 33.64 83.3891 33.152C83.6771 32.656 84.0731 32.272 84.5771 32C85.0891 31.72 85.6691 31.58 86.3171 31.58C86.8931 31.58 87.4051 31.696 87.8531 31.928C88.3091 32.16 88.6611 32.496 88.9091 32.936L88.0331 33.5C87.8331 33.196 87.5851 32.968 87.2891 32.816C86.9931 32.664 86.6651 32.588 86.3051 32.588C85.8891 32.588 85.5131 32.68 85.1771 32.864C84.8491 33.048 84.5891 33.312 84.3971 33.656C84.2131 33.992 84.1211 34.38 84.1211 34.82C84.1211 35.268 84.2131 35.664 84.3971 36.008C84.5891 36.344 84.8491 36.604 85.1771 36.788C85.5131 36.972 85.8891 37.064 86.3051 37.064C86.6651 37.064 86.9931 36.988 87.2891 36.836C87.5851 36.684 87.8331 36.456 88.0331 36.152L88.9091 36.704C88.6611 37.144 88.3091 37.484 87.8531 37.724C87.4051 37.956 86.8931 38.072 86.3171 38.072ZM96.0548 34.856C96.0548 34.944 96.0468 35.06 96.0308 35.204H90.8708C90.9428 35.764 91.1868 36.216 91.6028 36.56C92.0268 36.896 92.5508 37.064 93.1748 37.064C93.9348 37.064 94.5468 36.808 95.0108 36.296L95.6468 37.04C95.3588 37.376 94.9988 37.632 94.5668 37.808C94.1428 37.984 93.6668 38.072 93.1388 38.072C92.4668 38.072 91.8708 37.936 91.3508 37.664C90.8308 37.384 90.4268 36.996 90.1388 36.5C89.8588 36.004 89.7188 35.444 89.7188 34.82C89.7188 34.204 89.8548 33.648 90.1268 33.152C90.4068 32.656 90.7868 32.272 91.2668 32C91.7548 31.72 92.3028 31.58 92.9108 31.58C93.5188 31.58 94.0588 31.72 94.5308 32C95.0108 32.272 95.3828 32.656 95.6468 33.152C95.9188 33.648 96.0548 34.216 96.0548 34.856ZM92.9108 32.552C92.3588 32.552 91.8948 32.72 91.5188 33.056C91.1508 33.392 90.9348 33.832 90.8708 34.376H94.9508C94.8868 33.84 94.6668 33.404 94.2908 33.068C93.9228 32.724 93.4628 32.552 92.9108 32.552ZM99.4785 38.072C98.9585 38.072 98.4585 38.004 97.9785 37.868C97.4985 37.724 97.1225 37.544 96.8505 37.328L97.3305 36.416C97.6105 36.616 97.9505 36.776 98.3505 36.896C98.7505 37.016 99.1545 37.076 99.5625 37.076C100.571 37.076 101.075 36.788 101.075 36.212C101.075 36.02 101.007 35.868 100.871 35.756C100.735 35.644 100.563 35.564 100.355 35.516C100.155 35.46 99.8665 35.4 99.4905 35.336C98.9785 35.256 98.5585 35.164 98.2305 35.06C97.9105 34.956 97.6345 34.78 97.4025 34.532C97.1705 34.284 97.0545 33.936 97.0545 33.488C97.0545 32.912 97.2945 32.452 97.7745 32.108C98.2545 31.756 98.8985 31.58 99.7065 31.58C100.131 31.58 100.555 31.632 100.979 31.736C101.403 31.84 101.751 31.98 102.023 32.156L101.531 33.068C101.011 32.732 100.399 32.564 99.6945 32.564C99.2065 32.564 98.8345 32.644 98.5785 32.804C98.3225 32.964 98.1945 33.176 98.1945 33.44C98.1945 33.648 98.2665 33.812 98.4105 33.932C98.5545 34.052 98.7305 34.14 98.9385 34.196C99.1545 34.252 99.4545 34.316 99.8385 34.388C100.351 34.476 100.763 34.572 101.075 34.676C101.395 34.772 101.667 34.94 101.891 35.18C102.115 35.42 102.227 35.756 102.227 36.188C102.227 36.764 101.979 37.224 101.483 37.568C100.995 37.904 100.327 38.072 99.4785 38.072Z" fill="#82868C"/>
</svg>
