<svg width="93" height="41" viewBox="0 0 93 41" fill="none" xmlns="http://www.w3.org/2000/svg">
<rect x="0.5" y="0.5" width="40" height="40" rx="4" fill="#5A6FE4"/>
<path d="M26.875 11.125V14.875" stroke="white" stroke-width="1.2" stroke-miterlimit="10" stroke-linecap="round"/>
<path d="M19.375 18.25C20.8247 18.25 22 17.0747 22 15.625C22 14.1753 20.8247 13 19.375 13C17.9253 13 16.75 14.1753 16.75 15.625C16.75 17.0747 17.9253 18.25 19.375 18.25Z" stroke="white" stroke-width="1.2" stroke-miterlimit="10"/>
<path d="M19 21.25H19.855C21.4463 21.25 22.9724 21.8821 24.0976 23.0074C25.2229 24.1326 25.855 25.6587 25.855 27.25C25.855 27.6478 25.697 28.0294 25.4157 28.3107C25.1344 28.592 24.7528 28.75 24.355 28.75H14.5C14.1022 28.75 13.7206 28.592 13.4393 28.3107C13.158 28.0294 13 27.6478 13 27.25C13 25.6587 13.6321 24.1326 14.7574 23.0074C15.8826 21.8821 17.4087 21.25 19 21.25V21.25Z" stroke="white" stroke-width="1.2" stroke-miterlimit="10"/>
<path d="M25 12.8201L28.75 12.8351" stroke="white" stroke-width="1.2" stroke-miterlimit="10" stroke-linecap="round"/>
<path d="M62.418 15.02V17H53.13V15.434L58.134 10.682C58.698 10.142 59.076 9.674 59.268 9.278C59.472 8.87 59.574 8.468 59.574 8.072C59.574 7.484 59.376 7.034 58.98 6.722C58.584 6.41 58.002 6.254 57.234 6.254C55.95 6.254 54.966 6.692 54.282 7.568L52.644 6.308C53.136 5.648 53.796 5.138 54.624 4.778C55.464 4.406 56.4 4.22 57.432 4.22C58.8 4.22 59.892 4.544 60.708 5.192C61.524 5.84 61.932 6.722 61.932 7.838C61.932 8.522 61.788 9.164 61.5 9.764C61.212 10.364 60.66 11.048 59.844 11.816L56.478 15.02H62.418Z" fill="#3A3C40"/>
<path d="M55.428 30.644H52.548V29.6H59.496V30.644H56.616V38H55.428V30.644ZM65.7267 34.856C65.7267 34.944 65.7187 35.06 65.7027 35.204H60.5427C60.6147 35.764 60.8587 36.216 61.2747 36.56C61.6987 36.896 62.2227 37.064 62.8467 37.064C63.6067 37.064 64.2187 36.808 64.6827 36.296L65.3187 37.04C65.0307 37.376 64.6707 37.632 64.2387 37.808C63.8147 37.984 63.3387 38.072 62.8107 38.072C62.1387 38.072 61.5427 37.936 61.0227 37.664C60.5027 37.384 60.0987 36.996 59.8107 36.5C59.5307 36.004 59.3907 35.444 59.3907 34.82C59.3907 34.204 59.5267 33.648 59.7987 33.152C60.0787 32.656 60.4587 32.272 60.9387 32C61.4267 31.72 61.9747 31.58 62.5827 31.58C63.1907 31.58 63.7307 31.72 64.2027 32C64.6827 32.272 65.0547 32.656 65.3187 33.152C65.5907 33.648 65.7267 34.216 65.7267 34.856ZM62.5827 32.552C62.0307 32.552 61.5667 32.72 61.1907 33.056C60.8227 33.392 60.6067 33.832 60.5427 34.376H64.6227C64.5587 33.84 64.3387 33.404 63.9627 33.068C63.5947 32.724 63.1347 32.552 62.5827 32.552ZM69.4666 31.58C70.3466 31.58 71.0186 31.796 71.4826 32.228C71.9546 32.66 72.1906 33.304 72.1906 34.16V38H71.0986V37.16C70.9066 37.456 70.6306 37.684 70.2706 37.844C69.9186 37.996 69.4986 38.072 69.0106 38.072C68.2986 38.072 67.7266 37.9 67.2946 37.556C66.8706 37.212 66.6586 36.76 66.6586 36.2C66.6586 35.64 66.8626 35.192 67.2706 34.856C67.6786 34.512 68.3266 34.34 69.2146 34.34H71.0386V34.112C71.0386 33.616 70.8946 33.236 70.6066 32.972C70.3186 32.708 69.8946 32.576 69.3346 32.576C68.9586 32.576 68.5906 32.64 68.2306 32.768C67.8706 32.888 67.5666 33.052 67.3186 33.26L66.8386 32.396C67.1666 32.132 67.5586 31.932 68.0146 31.796C68.4706 31.652 68.9546 31.58 69.4666 31.58ZM69.2026 37.184C69.6426 37.184 70.0226 37.088 70.3426 36.896C70.6626 36.696 70.8946 36.416 71.0386 36.056V35.168H69.2626C68.2866 35.168 67.7986 35.496 67.7986 36.152C67.7986 36.472 67.9226 36.724 68.1706 36.908C68.4186 37.092 68.7626 37.184 69.2026 37.184ZM82.2785 31.58C83.0785 31.58 83.7105 31.812 84.1745 32.276C84.6465 32.74 84.8825 33.428 84.8825 34.34V38H83.7305V34.472C83.7305 33.856 83.5865 33.392 83.2985 33.08C83.0185 32.768 82.6145 32.612 82.0865 32.612C81.5025 32.612 81.0385 32.796 80.6945 33.164C80.3505 33.524 80.1785 34.044 80.1785 34.724V38H79.0265V34.472C79.0265 33.856 78.8825 33.392 78.5945 33.08C78.3145 32.768 77.9105 32.612 77.3825 32.612C76.7985 32.612 76.3345 32.796 75.9905 33.164C75.6465 33.524 75.4745 34.044 75.4745 34.724V38H74.3225V31.64H75.4265V32.588C75.6585 32.26 75.9625 32.012 76.3385 31.844C76.7145 31.668 77.1425 31.58 77.6225 31.58C78.1185 31.58 78.5585 31.68 78.9425 31.88C79.3265 32.08 79.6225 32.372 79.8305 32.756C80.0705 32.388 80.4025 32.1 80.8265 31.892C81.2585 31.684 81.7425 31.58 82.2785 31.58ZM88.8262 38.072C88.3062 38.072 87.8062 38.004 87.3262 37.868C86.8462 37.724 86.4702 37.544 86.1982 37.328L86.6782 36.416C86.9582 36.616 87.2982 36.776 87.6982 36.896C88.0982 37.016 88.5022 37.076 88.9102 37.076C89.9182 37.076 90.4222 36.788 90.4222 36.212C90.4222 36.02 90.3542 35.868 90.2182 35.756C90.0822 35.644 89.9102 35.564 89.7022 35.516C89.5022 35.46 89.2142 35.4 88.8382 35.336C88.3262 35.256 87.9062 35.164 87.5782 35.06C87.2582 34.956 86.9822 34.78 86.7502 34.532C86.5182 34.284 86.4022 33.936 86.4022 33.488C86.4022 32.912 86.6422 32.452 87.1222 32.108C87.6022 31.756 88.2462 31.58 89.0542 31.58C89.4782 31.58 89.9022 31.632 90.3262 31.736C90.7502 31.84 91.0982 31.98 91.3702 32.156L90.8782 33.068C90.3582 32.732 89.7462 32.564 89.0422 32.564C88.5542 32.564 88.1822 32.644 87.9262 32.804C87.6702 32.964 87.5422 33.176 87.5422 33.44C87.5422 33.648 87.6142 33.812 87.7582 33.932C87.9022 34.052 88.0782 34.14 88.2862 34.196C88.5022 34.252 88.8022 34.316 89.1862 34.388C89.6982 34.476 90.1102 34.572 90.4222 34.676C90.7422 34.772 91.0142 34.94 91.2382 35.18C91.4622 35.42 91.5742 35.756 91.5742 36.188C91.5742 36.764 91.3262 37.224 90.8302 37.568C90.3422 37.904 89.6742 38.072 88.8262 38.072Z" fill="#82868C"/>
</svg>
