<svg width="507" height="99" viewBox="0 0 507 99" fill="none" xmlns="http://www.w3.org/2000/svg">
<path opacity="0.5" d="M466.864 33.3751C453.321 57.2518 410.968 72.6908 397.425 30.5027C383.882 -11.5058 351.133 1.06083 345.223 16.4999C339.313 31.9389 319.861 55.8156 304.594 29.2461C289.574 3.03559 279.724 25.8351 275.538 33.5546C268.89 46.4803 266.427 29.6051 256.332 30.6822C246.729 31.7594 238.849 57.4313 210.039 55.9951C181.23 54.5589 189.109 19.3723 156.36 3.93321C123.61 -11.5058 108.098 27.8099 77.0719 41.8127C46.2924 55.8156 49.9859 20.6289 30.7795 19.3723C11.5731 18.1156 0 65.6894 0 65.6894V98.3627H507V31.9389C503.306 20.4494 479.422 11.2937 466.864 33.3751Z" fill="url(#paint0_linear_6_6389)"/>
<defs>
<linearGradient id="paint0_linear_6_6389" x1="253.454" y1="0.342735" x2="253.454" y2="98.4826" gradientUnits="userSpaceOnUse">
<stop stop-color="#61A9FF"/>
<stop offset="0.9981" stop-color="#CAE2FF"/>
</linearGradient>
</defs>
</svg>
